<svg width="14" height="14" viewBox="0 0 14 14" fill="none" xmlns="http://www.w3.org/2000/svg">
<g clip-path="url(#clip0_99_23)">
<mask id="mask0_99_23" style="mask-type:luminance" maskUnits="userSpaceOnUse" x="0" y="0" width="14" height="14">
<path d="M14 0H0V14H14V0Z" fill="white"/>
</mask>
<g mask="url(#mask0_99_23)">
<mask id="mask1_99_23" style="mask-type:luminance" maskUnits="userSpaceOnUse" x="0" y="0" width="14" height="14">
<path d="M14 0H0V14H14V0Z" fill="white"/>
</mask>
<g mask="url(#mask1_99_23)">
<path d="M0 0H11.76C12.3541 0 12.9238 0.235999 13.3439 0.656082C13.764 1.07616 14 1.64591 14 2.24V11.76C14 12.3541 13.764 12.9238 13.3439 13.3439C12.9238 13.764 12.3541 14 11.76 14H2.24C1.64591 14 1.07616 13.764 0.656082 13.3439C0.235999 12.9238 0 12.3541 0 11.76V0Z" fill="#663399"/>
<path d="M11.4315 12.8786C10.9781 12.8786 10.6313 12.7467 10.3885 12.4817C10.1484 12.2153 10.0234 11.8352 10.0122 11.3387H10.9894C10.995 11.7778 11.1493 11.9979 11.4525 11.9979C11.6071 11.9979 11.7166 11.9489 11.7797 11.852C11.8414 11.7554 11.8738 11.601 11.8738 11.3893C11.8738 11.221 11.8316 11.0807 11.7502 10.97C11.6396 10.8382 11.4977 10.7365 11.3374 10.674L10.9753 10.5C10.6524 10.3457 10.4179 10.1634 10.2733 9.95022C10.1329 9.7384 10.0627 9.44118 10.0627 9.06122C10.0627 8.63618 10.1864 8.29122 10.4319 8.02606C10.6846 7.76104 11.0286 7.6293 11.4679 7.6293C11.8921 7.6293 12.2206 7.75964 12.4521 8.01906C12.688 8.28002 12.8115 8.65298 12.8214 9.14102H11.8808C11.8864 8.98142 11.8542 8.82294 11.7867 8.67818C11.7335 8.57178 11.6295 8.51844 11.4751 8.51844C11.2 8.51844 11.0623 8.68238 11.0623 9.00914C11.0623 9.17476 11.0959 9.3037 11.1634 9.40184C11.2607 9.51041 11.3824 9.59413 11.5186 9.646L11.8654 9.79888C12.2234 9.96296 12.4817 10.1636 12.6403 10.4062C12.8003 10.6474 12.879 10.97 12.879 11.3739C12.879 11.8577 12.7526 12.2293 12.4957 12.4887C12.2402 12.7481 11.8848 12.8786 11.4315 12.8786ZM8.27565 12.8786C7.82205 12.8786 7.47541 12.7467 7.23251 12.4817C6.99241 12.2153 6.86753 11.8352 6.85633 11.3387H7.83339C7.83899 11.7778 7.99341 11.9979 8.29679 11.9979C8.45107 11.9979 8.56055 11.9489 8.62229 11.852C8.68557 11.7554 8.71637 11.601 8.71637 11.3893C8.71637 11.221 8.67577 11.0807 8.59429 10.97C8.48376 10.8382 8.3418 10.7365 8.18157 10.674L7.81939 10.5C7.49641 10.3457 7.26205 10.1634 7.11743 9.95022C6.97701 9.7384 6.90687 9.44118 6.90687 9.06122C6.90687 8.63618 7.03035 8.29122 7.27605 8.02606C7.52875 7.76104 7.87273 7.6293 8.31205 7.6293C8.73611 7.6293 9.06455 7.75964 9.29485 8.01906C9.53355 8.28002 9.65563 8.65298 9.66543 9.14102H8.72491C8.73051 8.98142 8.69831 8.82294 8.63083 8.67818C8.57749 8.57178 8.47361 8.51844 8.31919 8.51844C8.04395 8.51844 7.90633 8.68238 7.90633 9.00914C7.90633 9.17476 7.94007 9.3037 8.00741 9.40184C8.10464 9.51041 8.2264 9.59413 8.36259 9.646L8.70937 9.79888C9.06735 9.96296 9.32565 10.1636 9.48441 10.4062C9.64303 10.6474 9.72297 10.97 9.72297 11.3739C9.72297 11.8577 9.59529 12.2293 9.33979 12.4887C9.08429 12.7481 8.72911 12.8786 8.27565 12.8786ZM4.98915 12.8786C4.54535 12.8786 4.19311 12.7579 3.93201 12.5167C3.67091 12.277 3.54169 11.9165 3.54169 11.4397V9.08362C3.54169 8.60972 3.67931 8.25062 3.95441 8.0038C4.23385 7.75978 4.60023 7.63644 5.05369 7.63644C5.49315 7.63644 5.83979 7.76258 6.09669 8.0122C6.35653 8.26322 6.48701 8.63632 6.48701 9.13416V9.32064H5.45241V9.13976C5.45241 8.94768 5.41027 8.806 5.32879 8.71346C5.29323 8.66719 5.2472 8.62999 5.19449 8.60486C5.14182 8.57976 5.08393 8.56748 5.02555 8.56898C4.85713 8.56898 4.73785 8.62638 4.67037 8.74286C4.59855 8.904 4.56631 9.07995 4.57629 9.2561V11.3037C4.57629 11.7314 4.72665 11.9489 5.02569 11.9531C5.16597 11.9531 5.27125 11.9025 5.34433 11.8016C5.42371 11.6741 5.46147 11.525 5.45241 11.3751V11.2224H6.48701V11.3823C6.48701 11.7146 6.42247 11.9923 6.29185 12.2139C6.1677 12.4301 5.98136 12.6041 5.75705 12.7131C5.51751 12.8275 5.25455 12.8841 4.98915 12.8786Z" fill="white"/>
</g>
</g>
</g>
<defs>
<clipPath id="clip0_99_23">
<rect width="14" height="14" fill="white"/>
</clipPath>
</defs>
</svg>
