<svg width="14" height="14" viewBox="0 0 14 14" fill="none" xmlns="http://www.w3.org/2000/svg">
<path d="M4.6666 14C5.9546 14 6.99991 12.9547 6.99991 11.6667V9.33334H4.6666C3.37859 9.33334 2.33325 10.3787 2.33325 11.6667C2.33325 12.9547 3.37859 14 4.6666 14Z" fill="#0ACF83"/>
<path d="M2.33325 7C2.33325 5.712 3.37859 4.66666 4.6666 4.66666H6.99991V9.33331H4.6666C3.37859 9.33331 2.33325 8.288 2.33325 7Z" fill="#A259FF"/>
<path d="M2.33325 2.33333C2.33325 1.04533 3.37859 0 4.6666 0H6.99991V4.66666H4.6666C3.37859 4.66666 2.33325 3.62135 2.33325 2.33333Z" fill="#F24E1E"/>
<path d="M7 0H9.33335C10.6213 0 11.6667 1.04533 11.6667 2.33333C11.6667 3.62135 10.6213 4.66666 9.33335 4.66666H7V0Z" fill="#FF7262"/>
<path d="M11.6667 7C11.6667 8.288 10.6213 9.33331 9.33335 9.33331C8.04535 9.33331 7 8.288 7 7C7 5.712 8.04535 4.66666 9.33335 4.66666C10.6213 4.66666 11.6667 5.712 11.6667 7Z" fill="#1ABCFE"/>
</svg>
