<svg width="14" height="14" viewBox="0 0 14 14" fill="none" xmlns="http://www.w3.org/2000/svg">
<g clip-path="url(#clip0_99_42)">
<mask id="mask0_99_42" style="mask-type:luminance" maskUnits="userSpaceOnUse" x="0" y="0" width="14" height="14">
<path d="M14 0H0V14H14V0Z" fill="white"/>
</mask>
<g mask="url(#mask0_99_42)">
<mask id="mask1_99_42" style="mask-type:luminance" maskUnits="userSpaceOnUse" x="0" y="0" width="15" height="14">
<path d="M14.0167 0H0.0167236V14H14.0167V0Z" fill="white"/>
</mask>
<g mask="url(#mask1_99_42)">
<path d="M6.98965 0C3.1391 0 0.0167236 3.20912 0.0167236 7.16789C0.0167236 10.3349 2.01468 13.0217 4.78525 13.9695C5.13374 14.0359 5.2617 13.814 5.2617 13.6247C5.2617 13.4538 5.25519 12.8891 5.25222 12.2902C3.3123 12.7238 2.90297 11.4445 2.90297 11.4445C2.58578 10.616 2.12876 10.3957 2.12876 10.3957C1.49613 9.95078 2.17644 9.95988 2.17644 9.95988C2.87666 10.0105 3.24536 10.6986 3.24536 10.6986C3.86727 11.7944 4.8766 11.4776 5.27448 11.2945C5.33706 10.8311 5.5178 10.515 5.71719 10.336C4.16844 10.1547 2.54028 9.54006 2.54028 6.79354C2.54028 6.01101 2.81268 5.37156 3.25876 4.86959C3.18635 4.68902 2.9477 3.96 3.3263 2.97268C3.3263 2.97268 3.91186 2.78002 5.24434 3.70741C5.80053 3.54854 6.39707 3.46896 6.98965 3.46626C7.58224 3.46896 8.17923 3.54854 8.73647 3.70741C10.0674 2.78002 10.6521 2.97268 10.6521 2.97268C11.0317 3.96 10.7929 4.68902 10.7205 4.86959C11.1676 5.37156 11.4381 6.01097 11.4381 6.79354C11.4381 9.5466 9.80687 10.1528 8.2542 10.3302C8.50428 10.5527 8.72712 10.9889 8.72712 11.6576C8.72712 12.6167 8.71904 13.3886 8.71904 13.6247C8.71904 13.8154 8.84455 14.039 9.19805 13.9686C11.9671 13.0197 13.9625 10.3339 13.9625 7.16789C13.9625 3.20912 10.8406 0 6.98965 0Z" fill="#161614"/>
<path d="M2.62835 10.2108C2.61304 10.2464 2.55846 10.2571 2.50886 10.2327C2.45827 10.2093 2.42984 10.1608 2.44624 10.125C2.46128 10.0883 2.51586 10.0781 2.56634 10.1027C2.61703 10.1261 2.6459 10.1751 2.62835 10.2108ZM2.97134 10.5254C2.9381 10.5571 2.87308 10.5424 2.82894 10.4923C2.78333 10.4423 2.7748 10.3756 2.80854 10.3434C2.84283 10.3117 2.90589 10.3265 2.9516 10.3765C2.99721 10.4271 3.00612 10.4934 2.97134 10.5254ZM3.20666 10.928C3.1639 10.9585 3.09401 10.9298 3.05086 10.8661C3.00815 10.8024 3.00815 10.726 3.05179 10.6953C3.0951 10.6647 3.1639 10.6922 3.20765 10.7555C3.25031 10.8203 3.25036 10.8967 3.20666 10.928ZM3.60458 11.3942C3.56636 11.4375 3.48497 11.4259 3.42536 11.3667C3.36444 11.3089 3.34743 11.2269 3.38577 11.1836C3.42443 11.1402 3.5063 11.1524 3.56636 11.211C3.62687 11.2687 3.64532 11.3513 3.60458 11.3942ZM4.11883 11.5516C4.10207 11.6077 4.02363 11.6332 3.94467 11.6093C3.86582 11.5848 3.81419 11.519 3.83008 11.4623C3.8465 11.4058 3.92525 11.3792 4.00484 11.4047C4.08359 11.4292 4.13525 11.4944 4.11883 11.5516ZM4.70421 11.6183C4.70617 11.6774 4.63918 11.7264 4.5563 11.7275C4.47289 11.7294 4.40545 11.6815 4.40457 11.6234C4.40457 11.5637 4.47006 11.5151 4.55339 11.5137C4.63631 11.512 4.70421 11.5595 4.70421 11.6183ZM5.27919 11.5956C5.28916 11.6533 5.23152 11.7126 5.1492 11.7283C5.06828 11.7435 4.99334 11.7079 4.98302 11.6507C4.97294 11.5916 5.03167 11.5324 5.11245 11.517C5.19491 11.5023 5.26869 11.537 5.27919 11.5956Z" fill="#161614"/>
</g>
</g>
</g>
<defs>
<clipPath id="clip0_99_42">
<rect width="14" height="14" fill="white"/>
</clipPath>
</defs>
</svg>
