<svg width="14" height="14" viewBox="0 0 14 14" fill="none" xmlns="http://www.w3.org/2000/svg">
<g clip-path="url(#clip0_99_17)">
<path d="M1.94141 12.5781L0.820312 0H13.1523L12.0312 12.5781L6.97266 14" fill="#E34F26"/>
<path d="M7 12.9063L11.0742 11.7852L12.0312 1.01172H7" fill="#EF652A"/>
<path d="M7 5.6875H4.94921L4.8125 4.10158H7V2.57031H3.11719L3.52734 7.24608H7V5.6875ZM6.97266 9.70704L5.25 9.24217L5.14062 8.01171H3.60937L3.80079 10.4453L6.97266 11.3203V9.70704Z" fill="#EBEBEB"/>
<path d="M6.97266 5.6875V7.24608H8.8867L8.69532 9.24217L6.97266 9.70704V11.3203L10.1445 10.4453L10.582 5.6875H6.97266ZM6.97266 2.57031V4.10158H10.7187L10.8555 2.57031H6.97266Z" fill="white"/>
</g>
<defs>
<clipPath id="clip0_99_17">
<rect width="14" height="14" fill="white"/>
</clipPath>
</defs>
</svg>
