<svg width="14" height="14" viewBox="0 0 14 14" fill="none" xmlns="http://www.w3.org/2000/svg">
<g clip-path="url(#clip0_99_13)">
<path d="M0 0H14V14H0V0Z" fill="#F7DF1E"/>
<path d="M3.68119 11.6994L4.75254 11.051C4.95925 11.4175 5.14727 11.7276 5.59828 11.7276C6.03056 11.7276 6.30318 11.5585 6.30318 10.9007V6.42736H7.61879V10.9193C7.61879 12.282 6.82006 12.9022 5.65466 12.9022C4.60218 12.9022 3.99132 12.3572 3.68119 11.6994ZM8.33342 11.5584L9.40463 10.9382C9.68666 11.3987 10.0532 11.737 10.7016 11.737C11.2467 11.737 11.5943 11.4645 11.5943 11.0886C11.5943 10.6375 11.2372 10.4777 10.6358 10.2146L10.3069 10.0736C9.3577 9.66959 8.72808 9.16209 8.72808 8.09074C8.72808 7.10398 9.47988 6.35211 10.6546 6.35211C11.491 6.35211 12.0925 6.64349 12.5247 7.4047L11.5003 8.0626C11.2747 7.65849 11.0305 7.49875 10.6546 7.49875C10.2692 7.49875 10.0249 7.74308 10.0249 8.0626C10.0249 8.45726 10.2692 8.6171 10.8331 8.86147L11.1619 9.00238C12.2803 9.48171 12.9099 9.97034 12.9099 11.0698C12.9099 12.254 11.9796 12.9024 10.7297 12.9024C9.50806 12.9024 8.7187 12.3197 8.33342 11.5584Z" fill="black"/>
</g>
<defs>
<clipPath id="clip0_99_13">
<rect width="14" height="14" fill="white"/>
</clipPath>
</defs>
</svg>
