<svg width="14" height="14" viewBox="0 0 14 14" fill="none" xmlns="http://www.w3.org/2000/svg">
<path fill-rule="evenodd" clip-rule="evenodd" d="M9.62918 4.68256C9.80474 5.19041 9.93116 5.70883 9.97274 6.24618C10.0244 6.91283 10.0007 7.57478 9.86018 8.23047C9.85636 8.24853 9.84824 8.26547 9.84222 8.28297C9.79816 8.28308 9.75322 8.27762 9.7101 8.28427C9.34599 8.34149 8.98224 8.40078 8.61845 8.45972C8.24241 8.52066 7.86584 8.57914 7.49047 8.64424C7.35747 8.6672 7.19286 8.63976 7.13914 8.82372C7.1376 8.82876 7.1223 8.82964 7.11345 8.83247L7.13161 7.73316C7.12535 6.84895 7.11922 5.96478 7.1131 5.08058L7.28834 5.05051C7.57489 5.00358 7.86147 4.95601 8.14822 4.91041C8.49049 4.85602 8.83303 4.8032 9.17547 4.75014C9.32653 4.72666 9.4778 4.7051 9.62918 4.68256Z" fill="#439934"/>
<path fill-rule="evenodd" clip-rule="evenodd" d="M6.75163 12.0372C6.56676 11.8782 6.37549 11.7263 6.19828 11.5592C5.24488 10.6599 4.54751 9.60147 4.20405 8.32541C4.10945 7.97418 4.04634 7.61732 4.02611 7.25441C4.0119 7.00045 3.99132 6.74418 4.00924 6.49151C4.05705 5.81951 4.15418 5.15395 4.35126 4.5067L4.36211 4.49158C4.38126 4.51706 4.4088 4.5396 4.41853 4.56837C4.61093 5.13495 4.80189 5.70195 4.9919 6.26926C5.58886 8.05206 6.18505 9.83531 6.78299 11.6177C6.79472 11.6525 6.82499 11.681 6.84676 11.7124L6.75163 12.0372Z" fill="#45A538"/>
<path fill-rule="evenodd" clip-rule="evenodd" d="M9.62924 4.68259C9.47786 4.70513 9.32649 4.72665 9.17543 4.74996C8.83299 4.80302 8.49041 4.85584 8.14818 4.91019C7.86139 4.9558 7.57484 5.0034 7.28826 5.0503L7.11305 5.0804L7.11172 4.96609C7.10595 4.87215 7.09597 4.77828 7.09489 4.68434C7.08736 4.08517 7.08264 3.48602 7.07522 2.88687C7.0706 2.51182 7.06374 2.13688 7.05607 1.76195C7.05135 1.52897 7.04634 1.2959 7.03584 1.06326C7.03014 0.938241 7.01001 0.813883 7.00182 0.688866C6.99724 0.617008 7.00357 0.5446 7.00497 0.472412C7.09436 0.645554 7.18172 0.820008 7.2736 0.991833C7.41874 1.26352 7.64999 1.46368 7.8581 1.6821C8.68095 2.54529 9.2651 3.5489 9.62924 4.68259Z" fill="#46A037"/>
<path fill-rule="evenodd" clip-rule="evenodd" d="M7.11334 8.83235C7.12223 8.82951 7.13763 8.82864 7.13906 8.8236C7.19275 8.63964 7.35736 8.66708 7.49036 8.64412C7.86573 8.57916 8.24233 8.52053 8.61834 8.4596C8.98213 8.40066 9.34592 8.34137 9.71002 8.28414C9.75311 8.27739 9.79808 8.28295 9.84215 8.28285C9.77411 8.52564 9.72052 8.77372 9.63421 9.00987C9.53621 9.27772 9.41767 9.53914 9.29177 9.79541C9.10365 10.1785 8.86925 10.5359 8.59692 10.8632C8.38702 11.1156 8.15308 11.349 7.91858 11.5794C7.78898 11.7068 7.63617 11.8106 7.49396 11.9252L7.45711 11.9L7.32435 11.7865L7.18698 11.4853C7.09234 11.1328 7.04271 10.774 7.03448 10.4093L7.037 10.348L7.05573 10.0826C7.06196 9.99204 7.07025 9.9016 7.0741 9.81081C7.08821 9.48464 7.10046 9.15851 7.11334 8.83235Z" fill="#409433"/>
<path fill-rule="evenodd" clip-rule="evenodd" d="M7.1134 8.83236C7.10049 9.15852 7.08824 9.48469 7.07434 9.81096C7.07053 9.90171 7.0622 9.99219 7.05597 10.0827L6.97228 10.1143C6.78647 9.56725 6.60055 9.02594 6.41865 8.48323C6.11786 7.58538 5.82068 6.68609 5.52034 5.78802C5.27786 5.06307 5.03342 4.33892 4.78755 3.61508C4.77603 3.58117 4.74303 3.55471 4.72003 3.52471L5.25553 2.54013C5.27391 2.57207 5.2982 2.60193 5.30978 2.63627C5.55755 3.36941 5.80482 4.10267 6.05003 4.83669C6.36899 5.79152 6.68595 6.74713 7.00466 7.70207C7.01736 7.74025 7.03836 7.77546 7.05838 7.81823L7.13167 7.73294C7.12555 8.09946 7.11942 8.46584 7.1134 8.83236Z" fill="#4FAA41"/>
<path fill-rule="evenodd" clip-rule="evenodd" d="M4.72006 3.52481C4.74302 3.55477 4.77595 3.58127 4.78754 3.61515C5.03341 4.33902 5.27785 5.06317 5.52033 5.78812C5.8207 6.68619 6.11785 7.58548 6.41864 8.48333C6.60043 9.02594 6.78635 9.56735 6.97231 10.1144L7.05596 10.0828L7.03727 10.3482L7.02033 10.4093C6.99121 10.6998 6.96671 10.991 6.93129 11.2808C6.91347 11.4261 6.8756 11.5687 6.84683 11.7125C6.8252 11.6811 6.79479 11.6526 6.7831 11.6178C6.18512 9.83531 5.58893 8.05217 4.99197 6.26937C4.80196 5.70202 4.611 5.13502 4.4186 4.56848C4.40887 4.53971 4.38143 4.51717 4.36218 4.49169C4.48139 4.16937 4.60071 3.84702 4.72006 3.52481Z" fill="#4AA73C"/>
<path fill-rule="evenodd" clip-rule="evenodd" d="M7.13154 7.73305L7.05828 7.81834C7.03826 7.77557 7.01726 7.74026 7.00456 7.70218C6.68595 6.74724 6.36889 5.79163 6.04993 4.8368C5.80472 4.10278 5.55741 3.36952 5.30968 2.63638C5.2982 2.60203 5.27391 2.57207 5.25543 2.54024L5.9177 1.66907C5.9386 1.69696 5.96835 1.72178 5.97916 1.75318C6.16305 2.29141 6.34526 2.8303 6.52639 3.36952C6.69558 3.87307 6.86228 4.37742 7.03343 4.8803C7.04491 4.91401 7.08485 4.93784 7.11155 4.9663L7.11285 5.08057C7.11918 5.96453 7.12541 6.84884 7.13154 7.73305Z" fill="#57AE47"/>
<path fill-rule="evenodd" clip-rule="evenodd" d="M7.11166 4.96605C7.08499 4.93763 7.04506 4.91376 7.03358 4.88009C6.86243 4.37718 6.69572 3.87286 6.52653 3.3693C6.34541 2.83008 6.16316 2.2913 5.97931 1.75295C5.96849 1.72156 5.93874 1.69674 5.91785 1.66884C6.1332 1.45797 6.34191 1.23955 6.56591 1.03841C6.76506 0.859686 6.92518 0.668061 6.93253 0.385657C6.93285 0.373953 6.93897 0.362249 6.94839 0.329437L7.00516 0.472282C7.00372 0.544578 6.99728 0.616874 7.00197 0.688736C7.01016 0.813749 7.03029 0.938111 7.03599 1.06312C7.04649 1.29577 7.05153 1.52884 7.05622 1.76181C7.06378 2.13675 7.07068 2.51169 7.07537 2.88674C7.08268 3.48589 7.08751 4.08503 7.09504 4.6842C7.09591 4.77838 7.10578 4.87211 7.11166 4.96605Z" fill="#60B24F"/>
<path fill-rule="evenodd" clip-rule="evenodd" d="M6.84669 11.7124C6.87546 11.5686 6.9133 11.4258 6.93115 11.2807C6.96667 10.991 6.99107 10.6997 7.02015 10.4092L7.0274 10.4081L7.03461 10.4093C7.0428 10.774 7.09246 11.1328 7.18707 11.4853C7.16782 11.5107 7.14059 11.5334 7.1304 11.562C7.05092 11.7862 6.97598 12.0122 6.89604 12.2364C6.88509 12.267 6.85467 12.2909 6.83325 12.3178L6.75153 12.0372L6.84669 11.7124Z" fill="#A9AA88"/>
<path fill-rule="evenodd" clip-rule="evenodd" d="M6.83337 12.3179C6.85483 12.291 6.88535 12.2672 6.89616 12.2365C6.9761 12.0123 7.05114 11.7865 7.13056 11.5622C7.14071 11.5335 7.16783 11.5108 7.18722 11.4855L7.32446 11.7867C7.29733 11.8252 7.25995 11.8599 7.24483 11.9027L6.98191 12.6748C6.9711 12.7058 6.9341 12.7277 6.90939 12.7538L6.83337 12.3179Z" fill="#B6B598"/>
<path fill-rule="evenodd" clip-rule="evenodd" d="M6.90942 12.7537C6.93424 12.7276 6.97113 12.7057 6.98194 12.6747L7.24486 11.9026C7.25988 11.8598 7.2974 11.8251 7.32452 11.7866L7.45738 11.9C7.39319 11.9634 7.35753 12.0367 7.37898 12.1293L7.33863 12.2615C7.32025 12.2841 7.29365 12.3038 7.28459 12.3297C7.19282 12.5926 7.10521 12.8568 7.01278 13.1196C7.00109 13.153 6.96861 13.1791 6.94561 13.2085C6.93371 13.0567 6.92157 12.9054 6.90942 12.7537Z" fill="#C2C1A7"/>
<path fill-rule="evenodd" clip-rule="evenodd" d="M6.94569 13.2085C6.96855 13.179 7.00103 13.1529 7.01282 13.1196C7.10526 12.8569 7.19286 12.5927 7.28463 12.3297C7.2937 12.3039 7.32019 12.2841 7.33867 12.2615L7.28299 12.868C7.26811 12.8851 7.24655 12.9001 7.23945 12.9201C7.17655 13.0967 7.1173 13.2745 7.05419 13.4511C7.04117 13.4875 7.01622 13.5196 6.99676 13.5536C6.97947 13.531 6.94853 13.5091 6.94709 13.4855C6.94153 13.3935 6.94534 13.3009 6.94569 13.2085Z" fill="#CECDB7"/>
<path fill-rule="evenodd" clip-rule="evenodd" d="M6.99658 13.5536C7.01608 13.5195 7.041 13.4873 7.05402 13.4511C7.11723 13.2746 7.17641 13.0968 7.23931 12.9201C7.24641 12.9001 7.26808 12.8852 7.28281 12.868L7.28414 13.2661L7.15093 13.6078L6.99658 13.5536Z" fill="#DBDAC7"/>
<path fill-rule="evenodd" clip-rule="evenodd" d="M7.15094 13.6079L7.28415 13.2662L7.31159 13.6704L7.15094 13.6079Z" fill="#EBE9DC"/>
<path fill-rule="evenodd" clip-rule="evenodd" d="M7.37899 12.1295C7.35757 12.0368 7.39309 11.9634 7.45742 11.9001L7.49428 11.9253L7.37899 12.1295Z" fill="#CECDB7"/>
<path fill-rule="evenodd" clip-rule="evenodd" d="M7.0346 10.4094L7.02735 10.4082L7.02014 10.4093L7.03712 10.3482L7.0346 10.4094Z" fill="#4FAA41"/>
</svg>
