<svg width="11" height="14" viewBox="0 0 11 14" fill="none" xmlns="http://www.w3.org/2000/svg">
<path fill-rule="evenodd" clip-rule="evenodd" d="M0 1.88898V11.9379C0 12.9813 2.42216 13.8272 5.40984 13.8272V1.88898H0Z" fill="#0072C6"/>
<path fill-rule="evenodd" clip-rule="evenodd" d="M5.33569 13.827H5.40981C8.39748 13.827 10.8196 12.9815 10.8196 11.938V1.88916H5.33569V13.8272V13.827Z" fill="#0072C6"/>
<path opacity="0.15" fill-rule="evenodd" clip-rule="evenodd" d="M5.33569 13.827H5.40981C8.39748 13.827 10.8196 12.9815 10.8196 11.938V1.88913H5.33569V13.8272V13.827Z" fill="white"/>
<path fill-rule="evenodd" clip-rule="evenodd" d="M10.8197 1.88896C10.8197 2.93222 8.39751 3.77793 5.40984 3.77793C2.42216 3.77793 0 2.93222 0 1.88896C0 0.845704 2.42216 0 5.40984 0C8.39751 0 10.8197 0.845704 10.8197 1.88896Z" fill="white"/>
<path fill-rule="evenodd" clip-rule="evenodd" d="M9.71355 1.78007C9.71355 2.46883 7.78674 3.02641 5.40984 3.02641C3.03294 3.02641 1.10577 2.46883 1.10577 1.78007C1.10577 1.0913 3.03294 0.533722 5.40984 0.533722C7.78674 0.533722 9.71355 1.09165 9.71355 1.78007Z" fill="#7FBA00"/>
<path fill-rule="evenodd" clip-rule="evenodd" d="M8.81209 2.54196C9.37544 2.33127 9.71409 2.06752 9.71409 1.78078C9.71391 1.09201 7.78711 0.534088 5.40985 0.534088C3.03258 0.534088 1.10614 1.09201 1.10614 1.78078C1.10614 2.06735 1.44462 2.33127 2.00814 2.54196C2.79491 2.24745 4.02457 2.0575 5.41003 2.0575C6.79548 2.0575 8.02478 2.24745 8.81209 2.54196Z" fill="#B8D432"/>
<path fill-rule="evenodd" clip-rule="evenodd" d="M3.6917 8.86443C3.6917 9.17675 3.57431 9.41856 3.33916 9.58984C3.10401 9.76113 2.77978 9.84703 2.36557 9.84703C2.01321 9.84703 1.71873 9.78584 1.48214 9.6633V8.92856C1.75516 9.15204 2.05595 9.26387 2.3845 9.26387C2.54319 9.26387 2.666 9.23327 2.75255 9.17192C2.83911 9.11056 2.88239 9.02967 2.88239 8.92838C2.88239 8.829 2.84073 8.74258 2.75742 8.66913C2.67411 8.59567 2.5046 8.50078 2.24908 8.38446C1.72829 8.14905 1.46808 7.82722 1.46808 7.42053C1.46808 7.12532 1.5815 6.88853 1.80872 6.71016C2.03593 6.53179 2.33726 6.44278 2.71324 6.44278C3.04667 6.44278 3.32257 6.48513 3.54203 6.56913V7.25547C3.31193 7.10234 3.04991 7.02594 2.75634 7.02594C2.60883 7.02594 2.49216 7.05601 2.4065 7.11633C2.36578 7.14328 2.33272 7.17954 2.3103 7.22182C2.28788 7.2641 2.27682 7.31107 2.27811 7.35848C2.27811 7.46253 2.31255 7.54792 2.3818 7.61446C2.45105 7.681 2.59242 7.76327 2.80665 7.86127C3.12583 8.0068 3.35305 8.15424 3.48901 8.30426C3.62498 8.45429 3.6917 8.6413 3.6917 8.86443ZM7.36498 8.12088C7.36498 8.50804 7.27355 8.84421 7.09106 9.12853C6.90857 9.41285 6.65142 9.61266 6.3198 9.72759L7.30998 10.6113H6.31024L5.60318 9.84685C5.30005 9.83631 5.02649 9.75888 4.78287 9.61508C4.53924 9.47127 4.35098 9.27424 4.21862 9.02396C4.08626 8.77369 4.01972 8.49473 4.01972 8.18725C4.01972 7.84606 4.09149 7.54187 4.23503 7.27483C4.37857 7.00779 4.58054 6.80229 4.84093 6.65848C5.10132 6.51468 5.39941 6.44278 5.73626 6.44278C6.05021 6.44278 6.3317 6.51243 6.58019 6.65174C6.82869 6.79105 7.02128 6.98895 7.15869 7.24614C7.2961 7.50332 7.36498 7.79508 7.36498 8.12088ZM6.55567 8.16236C6.55567 7.82861 6.48029 7.5652 6.32936 7.37145C6.17842 7.17769 5.97231 7.0809 5.71029 7.0809C5.44359 7.0809 5.23026 7.17804 5.06977 7.37214C4.90928 7.56624 4.82939 7.82515 4.82939 8.14801C4.82939 8.4695 4.90783 8.72599 5.0649 8.91801C5.22196 9.11004 5.4306 9.20596 5.691 9.20596C5.95626 9.20596 6.16634 9.11298 6.32196 8.92717C6.47759 8.74137 6.55567 8.48661 6.55567 8.16236ZM9.9626 9.78947H7.92941V6.49809H8.69832V9.18816H9.96242L9.9626 9.78947Z" fill="white"/>
</svg>
