<svg width="22" height="33" viewBox="0 0 22 33" fill="none" xmlns="http://www.w3.org/2000/svg">
<path d="M1.31707 0V1.31707H0V0H1.31707ZM2.63415 0V1.31707H1.31707V0H2.63415ZM3.95122 0V1.31707H2.63415V0H3.95122ZM5.26829 0V1.31707H3.95122V0H5.26829ZM5.26829 1.31707V2.63415H3.95122V1.31707H5.26829ZM6.58537 1.31707V2.63415H5.26829V1.31707H6.58537ZM6.58537 2.63415V3.95122H5.26829V2.63415H6.58537ZM6.58537 0V1.31707H5.26829V0H6.58537ZM6.58537 3.95122V5.26829H5.26829V3.95122H6.58537ZM6.58537 5.26829V6.58537H5.26829V5.26829H6.58537ZM6.58537 6.58537V7.90244H5.26829V6.58537H6.58537ZM6.58537 7.90244V9.21951H5.26829V7.90244H6.58537ZM6.58537 9.21951V10.5366H5.26829V9.21951H6.58537ZM6.58537 10.5366V11.8537H5.26829V10.5366H6.58537ZM6.58537 11.8537V13.1707H5.26829V11.8537H6.58537ZM6.58537 13.1707V14.4878H5.26829V13.1707H6.58537ZM6.58537 14.4878V15.8049H5.26829V14.4878H6.58537ZM5.26829 14.4878V15.8049H3.95122V14.4878H5.26829ZM3.95122 15.8049V17.122H2.63415V15.8049H3.95122ZM2.63415 15.8049V17.122H1.31707V15.8049H2.63415ZM1.31707 15.8049V17.122H0V15.8049H1.31707ZM1.31707 14.4878V15.8049H0V14.4878H1.31707ZM1.31707 13.1707V14.4878H0V13.1707H1.31707ZM1.31707 11.8537V13.1707H0V11.8537H1.31707ZM1.31707 10.5366V11.8537H0V10.5366H1.31707ZM2.63415 10.5366V11.8537H1.31707V10.5366H2.63415ZM2.63415 9.21951V10.5366H1.31707V9.21951H2.63415ZM2.63415 7.90244V9.21951H1.31707V7.90244H2.63415ZM2.63415 6.58537V7.90244H1.31707V6.58537H2.63415ZM2.63415 5.26829V6.58537H1.31707V5.26829H2.63415ZM2.63415 3.95122V5.26829H1.31707V3.95122H2.63415ZM2.63415 2.63415V3.95122H1.31707V2.63415H2.63415ZM2.63415 1.31707V2.63415H1.31707V1.31707H2.63415ZM1.31707 1.31707V2.63415H0V1.31707H1.31707ZM1.31707 2.63415V3.95122H0V2.63415H1.31707ZM1.31707 3.95122V5.26829H0V3.95122H1.31707ZM1.31707 5.26829V6.58537H0V5.26829H1.31707ZM1.31707 6.58537V7.90244H0V6.58537H1.31707ZM1.31707 7.90244V9.21951H0V7.90244H1.31707ZM1.31707 9.21951V10.5366H0V9.21951H1.31707ZM3.95122 6.58537V7.90244H2.63415V6.58537H3.95122ZM3.95122 5.26829V6.58537H2.63415V5.26829H3.95122ZM3.95122 3.95122V5.26829H2.63415V3.95122H3.95122ZM3.95122 2.63415V3.95122H2.63415V2.63415H3.95122ZM3.95122 1.31707V2.63415H2.63415V1.31707H3.95122ZM5.26829 6.58537V7.90244H3.95122V6.58537H5.26829ZM5.26829 7.90244V9.21951H3.95122V7.90244H5.26829ZM5.26829 5.26829V6.58537H3.95122V5.26829H5.26829ZM5.26829 3.95122V5.26829H3.95122V3.95122H5.26829ZM5.26829 2.63415V3.95122H3.95122V2.63415H5.26829ZM3.95122 10.5366V11.8537H2.63415V10.5366H3.95122ZM3.95122 9.21951V10.5366H2.63415V9.21951H3.95122ZM3.95122 7.90244V9.21951H2.63415V7.90244H3.95122ZM5.26829 9.21951V10.5366H3.95122V9.21951H5.26829ZM5.26829 10.5366V11.8537H3.95122V10.5366H5.26829ZM5.26829 11.8537V13.1707H3.95122V11.8537H5.26829ZM3.95122 13.1707V14.4878H2.63415V13.1707H3.95122ZM3.95122 14.4878V15.8049H2.63415V14.4878H3.95122ZM3.95122 11.8537V13.1707H2.63415V11.8537H3.95122ZM2.63415 11.8537V13.1707H1.31707V11.8537H2.63415ZM2.63415 13.1707V14.4878H1.31707V13.1707H2.63415ZM2.63415 14.4878V15.8049H1.31707V14.4878H2.63415ZM5.26829 13.1707V14.4878H3.95122V13.1707H5.26829ZM3.95122 17.122V18.439H2.63415V17.122H3.95122ZM2.63415 17.122V18.439H1.31707V17.122H2.63415ZM5.26829 17.122V18.439H3.95122V17.122H5.26829ZM5.26829 15.8049V17.122H3.95122V15.8049H5.26829ZM6.58537 15.8049V17.122H5.26829V15.8049H6.58537ZM7.90244 15.8049V17.122H6.58537V15.8049H7.90244ZM7.90244 17.122V18.439H6.58537V17.122H7.90244ZM6.58537 17.122V18.439H5.26829V17.122H6.58537ZM9.21951 17.122V18.439H7.90244V17.122H9.21951ZM3.95122 18.439V19.7561H2.63415V18.439H3.95122ZM5.26829 18.439V19.7561H3.95122V18.439H5.26829ZM6.58537 18.439V19.7561H5.26829V18.439H6.58537ZM7.90244 18.439V19.7561H6.58537V18.439H7.90244ZM9.21951 18.439V19.7561H7.90244V18.439H9.21951ZM10.5366 18.439V19.7561H9.21951V18.439H10.5366ZM11.8537 18.439V19.7561H10.5366V18.439H11.8537ZM13.1707 18.439V19.7561H11.8537V18.439H13.1707ZM14.4878 18.439V19.7561H13.1707V18.439H14.4878ZM15.8049 18.439V19.7561H14.4878V18.439H15.8049ZM17.122 18.439V19.7561H15.8049V18.439H17.122ZM18.439 18.439V19.7561H17.122V18.439H18.439ZM17.122 17.122V18.439H15.8049V17.122H17.122ZM15.8049 17.122V18.439H14.4878V17.122H15.8049ZM14.4878 17.122V18.439H13.1707V17.122H14.4878ZM13.1707 17.122V18.439H11.8537V17.122H13.1707ZM14.4878 15.8049V17.122H13.1707V15.8049H14.4878ZM15.8049 15.8049V17.122H14.4878V15.8049H15.8049ZM17.122 15.8049V17.122H15.8049V15.8049H17.122ZM18.439 15.8049V17.122H17.122V15.8049H18.439ZM19.7561 15.8049V17.122H18.439V15.8049H19.7561ZM19.7561 17.122V18.439H18.439V17.122H19.7561ZM18.439 17.122V18.439H17.122V17.122H18.439ZM21.0732 15.8049V17.122H19.7561V15.8049H21.0732ZM9.21951 23.7073V25.0244H7.90244V23.7073H9.21951ZM9.21951 22.3902V23.7073H7.90244V22.3902H9.21951ZM9.21951 21.0732V22.3902H7.90244V21.0732H9.21951ZM10.5366 21.0732V22.3902H9.21951V21.0732H10.5366ZM10.5366 19.7561V21.0732H9.21951V19.7561H10.5366ZM11.8537 19.7561V21.0732H10.5366V19.7561H11.8537ZM13.1707 19.7561V21.0732H11.8537V19.7561H13.1707ZM13.1707 21.0732V22.3902H11.8537V21.0732H13.1707ZM13.1707 22.3902V23.7073H11.8537V22.3902H13.1707ZM13.1707 23.7073V25.0244H11.8537V23.7073H13.1707ZM11.8537 23.7073V25.0244H10.5366V23.7073H11.8537ZM10.5366 23.7073V25.0244H9.21951V23.7073H10.5366ZM10.5366 22.3902V23.7073H9.21951V22.3902H10.5366ZM11.8537 21.0732V22.3902H10.5366V21.0732H11.8537ZM11.8537 22.3902V23.7073H10.5366V22.3902H11.8537ZM14.4878 21.0732V22.3902H13.1707V21.0732H14.4878ZM14.4878 19.7561V21.0732H13.1707V19.7561H14.4878ZM15.8049 19.7561V21.0732H14.4878V19.7561H15.8049ZM17.122 19.7561V21.0732H15.8049V19.7561H17.122ZM15.8049 21.0732V22.3902H14.4878V21.0732H15.8049ZM14.4878 22.3902V23.7073H13.1707V22.3902H14.4878ZM5.26829 19.7561V21.0732H3.95122V19.7561H5.26829ZM6.58537 19.7561V21.0732H5.26829V19.7561H6.58537ZM6.58537 21.0732V22.3902H5.26829V21.0732H6.58537ZM7.90244 21.0732V22.3902H6.58537V21.0732H7.90244ZM7.90244 22.3902V23.7073H6.58537V22.3902H7.90244ZM9.21951 19.7561V21.0732H7.90244V19.7561H9.21951ZM7.90244 19.7561V21.0732H6.58537V19.7561H7.90244ZM15.8049 14.4878V15.8049H14.4878V14.4878H15.8049ZM15.8049 13.1707V14.4878H14.4878V13.1707H15.8049ZM15.8049 11.8537V13.1707H14.4878V11.8537H15.8049ZM15.8049 10.5366V11.8537H14.4878V10.5366H15.8049ZM17.122 10.5366V11.8537H15.8049V10.5366H17.122ZM18.439 10.5366V11.8537H17.122V10.5366H18.439ZM19.7561 10.5366V11.8537H18.439V10.5366H19.7561ZM21.0732 10.5366V11.8537H19.7561V10.5366H21.0732ZM21.0732 11.8537V13.1707H19.7561V11.8537H21.0732ZM21.0732 13.1707V14.4878H19.7561V13.1707H21.0732ZM21.0732 14.4878V15.8049H19.7561V14.4878H21.0732ZM19.7561 14.4878V15.8049H18.439V14.4878H19.7561ZM18.439 14.4878V15.8049H17.122V14.4878H18.439ZM17.122 14.4878V15.8049H15.8049V14.4878H17.122ZM18.439 13.1707V14.4878H17.122V13.1707H18.439ZM19.7561 13.1707V14.4878H18.439V13.1707H19.7561ZM19.7561 11.8537V13.1707H18.439V11.8537H19.7561ZM18.439 11.8537V13.1707H17.122V11.8537H18.439ZM17.122 11.8537V13.1707H15.8049V11.8537H17.122ZM17.122 13.1707V14.4878H15.8049V13.1707H17.122ZM15.8049 9.21951V10.5366H14.4878V9.21951H15.8049ZM15.8049 7.90244V9.21951H14.4878V7.90244H15.8049ZM15.8049 6.58537V7.90244H14.4878V6.58537H15.8049ZM15.8049 5.26829V6.58537H14.4878V5.26829H15.8049ZM15.8049 3.95122V5.26829H14.4878V3.95122H15.8049ZM15.8049 2.63415V3.95122H14.4878V2.63415H15.8049ZM15.8049 1.31707V2.63415H14.4878V1.31707H15.8049ZM15.8049 0V1.31707H14.4878V0H15.8049ZM17.122 1.31707V2.63415H15.8049V1.31707H17.122ZM17.122 0V1.31707H15.8049V0H17.122ZM18.439 0V1.31707H17.122V0H18.439ZM19.7561 0V1.31707H18.439V0H19.7561ZM19.7561 1.31707V2.63415H18.439V1.31707H19.7561ZM19.7561 2.63415V3.95122H18.439V2.63415H19.7561ZM21.0732 2.63415V3.95122H19.7561V2.63415H21.0732ZM21.0732 3.95122V5.26829H19.7561V3.95122H21.0732ZM21.0732 5.26829V6.58537H19.7561V5.26829H21.0732ZM21.0732 6.58537V7.90244H19.7561V6.58537H21.0732ZM21.0732 7.90244V9.21951H19.7561V7.90244H21.0732ZM21.0732 9.21951V10.5366H19.7561V9.21951H21.0732ZM21.0732 1.31707V2.63415H19.7561V1.31707H21.0732ZM21.0732 0V1.31707H19.7561V0H21.0732ZM18.439 1.31707V2.63415H17.122V1.31707H18.439ZM18.439 2.63415V3.95122H17.122V2.63415H18.439ZM18.439 3.95122V5.26829H17.122V3.95122H18.439ZM18.439 5.26829V6.58537H17.122V5.26829H18.439ZM18.439 6.58537V7.90244H17.122V6.58537H18.439ZM18.439 7.90244V9.21951H17.122V7.90244H18.439ZM17.122 7.90244V9.21951H15.8049V7.90244H17.122ZM17.122 9.21951V10.5366H15.8049V9.21951H17.122ZM17.122 6.58537V7.90244H15.8049V6.58537H17.122ZM17.122 5.26829V6.58537H15.8049V5.26829H17.122ZM17.122 3.95122V5.26829H15.8049V3.95122H17.122ZM17.122 2.63415V3.95122H15.8049V2.63415H17.122ZM19.7561 3.95122V5.26829H18.439V3.95122H19.7561ZM19.7561 5.26829V6.58537H18.439V5.26829H19.7561ZM19.7561 6.58537V7.90244H18.439V6.58537H19.7561ZM19.7561 7.90244V9.21951H18.439V7.90244H19.7561ZM19.7561 9.21951V10.5366H18.439V9.21951H19.7561ZM18.439 9.21951V10.5366H17.122V9.21951H18.439ZM6.58537 23.7073V25.0244H5.26829V23.7073H6.58537ZM7.90244 23.7073V25.0244H6.58537V23.7073H7.90244ZM9.21951 25.0244V26.3415H7.90244V25.0244H9.21951ZM10.5366 25.0244V26.3415H9.21951V25.0244H10.5366ZM11.8537 25.0244V26.3415H10.5366V25.0244H11.8537ZM7.90244 25.0244V26.3415H6.58537V25.0244H7.90244ZM6.58537 25.0244V26.3415H5.26829V25.0244H6.58537ZM5.26829 25.0244V26.3415H3.95122V25.0244H5.26829ZM5.26829 26.3415V27.6585H3.95122V26.3415H5.26829ZM3.95122 26.3415V27.6585H2.63415V26.3415H3.95122ZM3.95122 27.6585V28.9756H2.63415V27.6585H3.95122ZM2.63415 27.6585V28.9756H1.31707V27.6585H2.63415ZM2.63415 28.9756V30.2927H1.31707V28.9756H2.63415ZM2.63415 30.2927V31.6098H1.31707V30.2927H2.63415ZM2.63415 31.6098V32.9268H1.31707V31.6098H2.63415ZM3.95122 31.6098V32.9268H2.63415V31.6098H3.95122ZM5.26829 31.6098V32.9268H3.95122V31.6098H5.26829ZM5.26829 30.2927V31.6098H3.95122V30.2927H5.26829ZM5.26829 28.9756V30.2927H3.95122V28.9756H5.26829ZM3.95122 28.9756V30.2927H2.63415V28.9756H3.95122ZM3.95122 30.2927V31.6098H2.63415V30.2927H3.95122ZM6.58537 28.9756V30.2927H5.26829V28.9756H6.58537ZM6.58537 30.2927V31.6098H5.26829V30.2927H6.58537ZM7.90244 28.9756V30.2927H6.58537V28.9756H7.90244ZM7.90244 27.6585V28.9756H6.58537V27.6585H7.90244ZM9.21951 27.6585V28.9756H7.90244V27.6585H9.21951ZM9.21951 26.3415V27.6585H7.90244V26.3415H9.21951ZM10.5366 26.3415V27.6585H9.21951V26.3415H10.5366ZM7.90244 26.3415V27.6585H6.58537V26.3415H7.90244ZM6.58537 26.3415V27.6585H5.26829V26.3415H6.58537ZM6.58537 27.6585V28.9756H5.26829V27.6585H6.58537ZM5.26829 27.6585V28.9756H3.95122V27.6585H5.26829Z" fill="black"/>
</svg>
