<svg width="22" height="34" viewBox="0 0 22 34" fill="none" xmlns="http://www.w3.org/2000/svg">
<path d="M1.95122 0.975609V2.29268H0.634146V0.975609H1.95122ZM3.26829 0.975609V2.29268H1.95122V0.975609H3.26829ZM4.58537 0.975609V2.29268H3.26829V0.975609H4.58537ZM5.90244 0.975609V2.29268H4.58537V0.975609H5.90244ZM5.90244 2.29268V3.60975H4.58537V2.29268H5.90244ZM7.21951 2.29268V3.60975H5.90244V2.29268H7.21951ZM7.21951 3.60975V4.92683H5.90244V3.60975H7.21951ZM7.21951 0.975609V2.29268H5.90244V0.975609H7.21951ZM7.21951 4.92683V6.2439H5.90244V4.92683H7.21951ZM7.21951 6.2439V7.56097H5.90244V6.2439H7.21951ZM7.21951 7.56097V8.87805H5.90244V7.56097H7.21951ZM7.21951 8.87805V10.1951H5.90244V8.87805H7.21951ZM7.21951 10.1951V11.5122H5.90244V10.1951H7.21951ZM7.21951 11.5122V12.8293H5.90244V11.5122H7.21951ZM7.21951 12.8293V14.1463H5.90244V12.8293H7.21951ZM7.21951 14.1463V15.4634H5.90244V14.1463H7.21951ZM7.21951 15.4634V16.7805H5.90244V15.4634H7.21951ZM5.90244 15.4634V16.7805H4.58537V15.4634H5.90244ZM4.58537 16.7805V18.0976H3.26829V16.7805H4.58537ZM3.26829 16.7805V18.0976H1.95122V16.7805H3.26829ZM1.95122 16.7805V18.0976H0.634146V16.7805H1.95122ZM1.95122 15.4634V16.7805H0.634146V15.4634H1.95122ZM1.95122 14.1463V15.4634H0.634146V14.1463H1.95122ZM1.95122 12.8293V14.1463H0.634146V12.8293H1.95122ZM1.95122 11.5122V12.8293H0.634146V11.5122H1.95122ZM3.26829 11.5122V12.8293H1.95122V11.5122H3.26829ZM3.26829 10.1951V11.5122H1.95122V10.1951H3.26829ZM3.26829 8.87805V10.1951H1.95122V8.87805H3.26829ZM3.26829 7.56097V8.87805H1.95122V7.56097H3.26829ZM3.26829 6.2439V7.56097H1.95122V6.2439H3.26829ZM3.26829 4.92683V6.2439H1.95122V4.92683H3.26829ZM3.26829 3.60975V4.92683H1.95122V3.60975H3.26829ZM3.26829 2.29268V3.60975H1.95122V2.29268H3.26829ZM1.95122 2.29268V3.60975H0.634146V2.29268H1.95122ZM1.95122 3.60975V4.92683H0.634146V3.60975H1.95122ZM1.95122 4.92683V6.2439H0.634146V4.92683H1.95122ZM1.95122 6.2439V7.56097H0.634146V6.2439H1.95122ZM1.95122 7.56097V8.87805H0.634146V7.56097H1.95122ZM1.95122 8.87805V10.1951H0.634146V8.87805H1.95122ZM1.95122 10.1951V11.5122H0.634146V10.1951H1.95122ZM4.58537 7.56097V8.87805H3.26829V7.56097H4.58537ZM4.58537 6.2439V7.56097H3.26829V6.2439H4.58537ZM4.58537 4.92683V6.2439H3.26829V4.92683H4.58537ZM4.58537 3.60975V4.92683H3.26829V3.60975H4.58537ZM4.58537 2.29268V3.60975H3.26829V2.29268H4.58537ZM5.90244 7.56097V8.87805H4.58537V7.56097H5.90244ZM5.90244 8.87805V10.1951H4.58537V8.87805H5.90244ZM5.90244 6.2439V7.56097H4.58537V6.2439H5.90244ZM5.90244 4.92683V6.2439H4.58537V4.92683H5.90244ZM5.90244 3.60975V4.92683H4.58537V3.60975H5.90244ZM4.58537 11.5122V12.8293H3.26829V11.5122H4.58537ZM4.58537 10.1951V11.5122H3.26829V10.1951H4.58537ZM4.58537 8.87805V10.1951H3.26829V8.87805H4.58537ZM5.90244 10.1951V11.5122H4.58537V10.1951H5.90244ZM5.90244 11.5122V12.8293H4.58537V11.5122H5.90244ZM5.90244 12.8293V14.1463H4.58537V12.8293H5.90244ZM4.58537 14.1463V15.4634H3.26829V14.1463H4.58537ZM4.58537 15.4634V16.7805H3.26829V15.4634H4.58537ZM4.58537 12.8293V14.1463H3.26829V12.8293H4.58537ZM3.26829 12.8293V14.1463H1.95122V12.8293H3.26829ZM3.26829 14.1463V15.4634H1.95122V14.1463H3.26829ZM3.26829 15.4634V16.7805H1.95122V15.4634H3.26829ZM5.90244 14.1463V15.4634H4.58537V14.1463H5.90244ZM4.58537 18.0976V19.4146H3.26829V18.0976H4.58537ZM3.26829 18.0976V19.4146H1.95122V18.0976H3.26829ZM5.90244 18.0976V19.4146H4.58537V18.0976H5.90244ZM5.90244 16.7805V18.0976H4.58537V16.7805H5.90244ZM7.21951 16.7805V18.0976H5.90244V16.7805H7.21951ZM8.53658 16.7805V18.0976H7.21951V16.7805H8.53658ZM8.53658 18.0976V19.4146H7.21951V18.0976H8.53658ZM7.21951 18.0976V19.4146H5.90244V18.0976H7.21951ZM9.85366 18.0976V19.4146H8.53658V18.0976H9.85366ZM4.58537 19.4146V20.7317H3.26829V19.4146H4.58537ZM5.90244 19.4146V20.7317H4.58537V19.4146H5.90244ZM7.21951 19.4146V20.7317H5.90244V19.4146H7.21951ZM8.53658 19.4146V20.7317H7.21951V19.4146H8.53658ZM9.85366 19.4146V20.7317H8.53658V19.4146H9.85366ZM11.1707 19.4146V20.7317H9.85366V19.4146H11.1707ZM12.4878 19.4146V20.7317H11.1707V19.4146H12.4878ZM13.8049 19.4146V20.7317H12.4878V19.4146H13.8049ZM15.122 19.4146V20.7317H13.8049V19.4146H15.122ZM16.439 19.4146V20.7317H15.122V19.4146H16.439ZM17.7561 19.4146V20.7317H16.439V19.4146H17.7561ZM19.0732 19.4146V20.7317H17.7561V19.4146H19.0732ZM17.7561 18.0976V19.4146H16.439V18.0976H17.7561ZM16.439 18.0976V19.4146H15.122V18.0976H16.439ZM15.122 18.0976V19.4146H13.8049V18.0976H15.122ZM13.8049 18.0976V19.4146H12.4878V18.0976H13.8049ZM15.122 16.7805V18.0976H13.8049V16.7805H15.122ZM16.439 16.7805V18.0976H15.122V16.7805H16.439ZM17.7561 16.7805V18.0976H16.439V16.7805H17.7561ZM19.0732 16.7805V18.0976H17.7561V16.7805H19.0732ZM20.3902 16.7805V18.0976H19.0732V16.7805H20.3902ZM20.3902 18.0976V19.4146H19.0732V18.0976H20.3902ZM19.0732 18.0976V19.4146H17.7561V18.0976H19.0732ZM21.7073 16.7805V18.0976H20.3902V16.7805H21.7073ZM9.85366 24.6829V26H8.53658V24.6829H9.85366ZM9.85366 23.3659V24.6829H8.53658V23.3659H9.85366ZM9.85366 22.0488V23.3659H8.53658V22.0488H9.85366ZM11.1707 22.0488V23.3659H9.85366V22.0488H11.1707ZM11.1707 20.7317V22.0488H9.85366V20.7317H11.1707ZM12.4878 20.7317V22.0488H11.1707V20.7317H12.4878ZM13.8049 20.7317V22.0488H12.4878V20.7317H13.8049ZM13.8049 22.0488V23.3659H12.4878V22.0488H13.8049ZM13.8049 23.3659V24.6829H12.4878V23.3659H13.8049ZM13.8049 24.6829V26H12.4878V24.6829H13.8049ZM12.4878 24.6829V26H11.1707V24.6829H12.4878ZM11.1707 24.6829V26H9.85366V24.6829H11.1707ZM11.1707 23.3659V24.6829H9.85366V23.3659H11.1707ZM12.4878 22.0488V23.3659H11.1707V22.0488H12.4878ZM12.4878 23.3659V24.6829H11.1707V23.3659H12.4878ZM15.122 22.0488V23.3659H13.8049V22.0488H15.122ZM15.122 20.7317V22.0488H13.8049V20.7317H15.122ZM16.439 20.7317V22.0488H15.122V20.7317H16.439ZM17.7561 20.7317V22.0488H16.439V20.7317H17.7561ZM16.439 22.0488V23.3659H15.122V22.0488H16.439ZM15.122 23.3659V24.6829H13.8049V23.3659H15.122ZM5.90244 20.7317V22.0488H4.58537V20.7317H5.90244ZM7.21951 20.7317V22.0488H5.90244V20.7317H7.21951ZM7.21951 22.0488V23.3659H5.90244V22.0488H7.21951ZM8.53658 22.0488V23.3659H7.21951V22.0488H8.53658ZM8.53658 23.3659V24.6829H7.21951V23.3659H8.53658ZM9.85366 20.7317V22.0488H8.53658V20.7317H9.85366ZM8.53658 20.7317V22.0488H7.21951V20.7317H8.53658ZM16.439 15.4634V16.7805H15.122V15.4634H16.439ZM16.439 14.1463V15.4634H15.122V14.1463H16.439ZM16.439 12.8293V14.1463H15.122V12.8293H16.439ZM16.439 11.5122V12.8293H15.122V11.5122H16.439ZM17.7561 11.5122V12.8293H16.439V11.5122H17.7561ZM19.0732 11.5122V12.8293H17.7561V11.5122H19.0732ZM20.3902 11.5122V12.8293H19.0732V11.5122H20.3902ZM21.7073 11.5122V12.8293H20.3902V11.5122H21.7073ZM21.7073 12.8293V14.1463H20.3902V12.8293H21.7073ZM21.7073 14.1463V15.4634H20.3902V14.1463H21.7073ZM21.7073 15.4634V16.7805H20.3902V15.4634H21.7073ZM20.3902 15.4634V16.7805H19.0732V15.4634H20.3902ZM19.0732 15.4634V16.7805H17.7561V15.4634H19.0732ZM17.7561 15.4634V16.7805H16.439V15.4634H17.7561ZM19.0732 14.1463V15.4634H17.7561V14.1463H19.0732ZM20.3902 14.1463V15.4634H19.0732V14.1463H20.3902ZM20.3902 12.8293V14.1463H19.0732V12.8293H20.3902ZM19.0732 12.8293V14.1463H17.7561V12.8293H19.0732ZM17.7561 12.8293V14.1463H16.439V12.8293H17.7561ZM17.7561 14.1463V15.4634H16.439V14.1463H17.7561ZM16.439 10.1951V11.5122H15.122V10.1951H16.439ZM16.439 8.87805V10.1951H15.122V8.87805H16.439ZM16.439 7.56097V8.87805H15.122V7.56097H16.439ZM16.439 6.2439V7.56097H15.122V6.2439H16.439ZM16.439 4.92683V6.2439H15.122V4.92683H16.439ZM16.439 3.60975V4.92683H15.122V3.60975H16.439ZM16.439 2.29268V3.60975H15.122V2.29268H16.439ZM16.439 0.975609V2.29268H15.122V0.975609H16.439ZM17.7561 2.29268V3.60975H16.439V2.29268H17.7561ZM17.7561 0.975609V2.29268H16.439V0.975609H17.7561ZM19.0732 0.975609V2.29268H17.7561V0.975609H19.0732ZM20.3902 0.975609V2.29268H19.0732V0.975609H20.3902ZM20.3902 2.29268V3.60975H19.0732V2.29268H20.3902ZM20.3902 3.60975V4.92683H19.0732V3.60975H20.3902ZM21.7073 3.60975V4.92683H20.3902V3.60975H21.7073ZM21.7073 4.92683V6.2439H20.3902V4.92683H21.7073ZM21.7073 6.2439V7.56097H20.3902V6.2439H21.7073ZM21.7073 7.56097V8.87805H20.3902V7.56097H21.7073ZM21.7073 8.87805V10.1951H20.3902V8.87805H21.7073ZM21.7073 10.1951V11.5122H20.3902V10.1951H21.7073ZM21.7073 2.29268V3.60975H20.3902V2.29268H21.7073ZM21.7073 0.975609V2.29268H20.3902V0.975609H21.7073ZM19.0732 2.29268V3.60975H17.7561V2.29268H19.0732ZM19.0732 3.60975V4.92683H17.7561V3.60975H19.0732ZM19.0732 4.92683V6.2439H17.7561V4.92683H19.0732ZM19.0732 6.2439V7.56097H17.7561V6.2439H19.0732ZM19.0732 7.56097V8.87805H17.7561V7.56097H19.0732ZM19.0732 8.87805V10.1951H17.7561V8.87805H19.0732ZM17.7561 8.87805V10.1951H16.439V8.87805H17.7561ZM17.7561 10.1951V11.5122H16.439V10.1951H17.7561ZM17.7561 7.56097V8.87805H16.439V7.56097H17.7561ZM17.7561 6.2439V7.56097H16.439V6.2439H17.7561ZM17.7561 4.92683V6.2439H16.439V4.92683H17.7561ZM17.7561 3.60975V4.92683H16.439V3.60975H17.7561ZM20.3902 4.92683V6.2439H19.0732V4.92683H20.3902ZM20.3902 6.2439V7.56097H19.0732V6.2439H20.3902ZM20.3902 7.56097V8.87805H19.0732V7.56097H20.3902ZM20.3902 8.87805V10.1951H19.0732V8.87805H20.3902ZM20.3902 10.1951V11.5122H19.0732V10.1951H20.3902ZM19.0732 10.1951V11.5122H17.7561V10.1951H19.0732ZM7.21951 24.6829V26H5.90244V24.6829H7.21951ZM8.53658 24.6829V26H7.21951V24.6829H8.53658ZM9.85366 26V27.3171H8.53658V26H9.85366ZM11.1707 26V27.3171H9.85366V26H11.1707ZM12.4878 26V27.3171H11.1707V26H12.4878ZM8.53658 26V27.3171H7.21951V26H8.53658ZM7.21951 26V27.3171H5.90244V26H7.21951ZM5.90244 26V27.3171H4.58537V26H5.90244ZM5.90244 27.3171V28.6341H4.58537V27.3171H5.90244ZM4.58537 27.3171V28.6341H3.26829V27.3171H4.58537ZM4.58537 28.6341V29.9512H3.26829V28.6341H4.58537ZM3.26829 28.6341V29.9512H1.95122V28.6341H3.26829ZM3.26829 29.9512V31.2683H1.95122V29.9512H3.26829ZM3.26829 31.2683V32.5854H1.95122V31.2683H3.26829ZM3.26829 32.5854V33.9024H1.95122V32.5854H3.26829ZM4.58537 32.5854V33.9024H3.26829V32.5854H4.58537ZM5.90244 32.5854V33.9024H4.58537V32.5854H5.90244ZM5.90244 31.2683V32.5854H4.58537V31.2683H5.90244ZM5.90244 29.9512V31.2683H4.58537V29.9512H5.90244ZM4.58537 29.9512V31.2683H3.26829V29.9512H4.58537ZM4.58537 31.2683V32.5854H3.26829V31.2683H4.58537ZM7.21951 29.9512V31.2683H5.90244V29.9512H7.21951ZM7.21951 31.2683V32.5854H5.90244V31.2683H7.21951ZM8.53658 29.9512V31.2683H7.21951V29.9512H8.53658ZM8.53658 28.6341V29.9512H7.21951V28.6341H8.53658ZM9.85366 28.6341V29.9512H8.53658V28.6341H9.85366ZM9.85366 27.3171V28.6341H8.53658V27.3171H9.85366ZM11.1707 27.3171V28.6341H9.85366V27.3171H11.1707ZM8.53658 27.3171V28.6341H7.21951V27.3171H8.53658ZM7.21951 27.3171V28.6341H5.90244V27.3171H7.21951ZM7.21951 28.6341V29.9512H5.90244V28.6341H7.21951ZM5.90244 28.6341V29.9512H4.58537V28.6341H5.90244Z" fill="white"/>
</svg>
