<svg width="23" height="65" viewBox="0 0 23 65" fill="none" xmlns="http://www.w3.org/2000/svg">
<g clip-path="url(#clip0_122_9)">
<mask id="mask0_122_9" style="mask-type:luminance" maskUnits="userSpaceOnUse" x="0" y="0" width="23" height="65">
<path d="M22.9993 0H0.45929V65H22.9993V0Z" fill="white"/>
</mask>
<g mask="url(#mask0_122_9)">
<path d="M13.6613 9.83125C2.63282 26.975 5.77232 50.9437 22.5968 63.8625C22.9188 64.1875 23.0798 64.5937 22.9188 64.8375C22.7578 65.0812 22.2748 65.0813 21.9528 64.7563C13.9698 58.3794 8.70045 49.1666 7.22132 39C5.69182 28.7625 7.94582 18.3625 13.6613 9.83125ZM14.5468 58.0937C12.2123 60.125 7.54332 58.4187 5.20882 53.7062C8.02632 52.325 11.8098 54.5187 14.5468 58.0937ZM17.0423 47.45C18.5718 50.6188 18.5718 54.6 16.2373 56.7125C13.5003 53.1375 14.3053 48.75 17.0423 47.45ZM10.1998 51.025C7.54332 52.65 3.35732 50.05 1.98882 45.0125C4.96732 44.2812 8.18732 47.125 10.1998 51.025ZM14.7883 41.275C15.6738 44.6875 14.8688 48.5875 12.1318 50.05H12.0513C10.1193 46.0687 11.8098 42.0063 14.7883 41.275ZM7.38232 43.4688C4.40382 44.4438 0.861823 41.1125 0.459323 35.9125C3.51832 35.75 6.17482 39.2438 7.38232 43.4688ZM13.7418 34.8563C13.9833 38.35 12.3733 41.925 9.39482 42.9V42.8187C8.26782 38.5937 10.6023 35.0188 13.7418 34.8563ZM0.700822 26.65C3.75982 27.2187 5.69182 31.1188 6.01382 35.425C2.95482 35.8312 0.0568221 31.85 0.700822 26.65ZM13.9028 28.3562C13.4198 31.85 11.2463 34.9375 8.18732 35.3438L8.10682 35.2625C7.86532 30.9562 10.8438 27.8687 13.9028 28.3562ZM15.2713 22.0187C14.2248 25.35 11.4073 27.95 8.34832 27.625C8.83132 23.3187 12.3733 20.8812 15.2713 22.0187ZM2.63282 17.6312C5.45032 18.7687 6.65782 22.9125 6.25532 27.1375L6.17482 27.3812H6.09432C3.11582 26.975 1.10332 22.75 2.55232 17.875L2.63282 17.6312ZM17.8473 15.925C16.0763 19.0125 12.9368 21.0438 9.95832 20.15C11.2463 16.0063 15.1908 14.2188 17.8473 15.925ZM6.33582 9.1C8.91182 10.8063 9.23382 15.275 7.94582 19.5C4.96732 18.6062 3.67932 13.7312 6.33582 9.1ZM21.6308 10.4C19.2158 13.1625 15.6738 14.5438 12.9368 13.0813C15.1103 9.18125 19.4573 8.20625 21.6308 10.4ZM11.6488 1.3C13.9028 3.575 13.2588 8.125 11.0853 11.9437C8.42882 10.4812 8.10682 5.44375 11.6488 1.3ZM22.9188 0C21.4698 3.81875 18.4108 6.825 14.7078 8.2875C14.7078 4.3875 18.8938 0.08125 22.9188 0Z" fill="#CAC7C7"/>
</g>
</g>
<defs>
<clipPath id="clip0_122_9">
<rect width="23" height="65" fill="white" transform="matrix(-1 0 0 1 23 0)"/>
</clipPath>
</defs>
</svg>
