<svg width="150" height="13" viewBox="0 0 150 13" fill="none" xmlns="http://www.w3.org/2000/svg">
<path d="M3.266 12.198V6.042H1.682V4.512H0.0980001V0.516H2.384V3.594H3.968V5.142H4.868V3.594H6.452V0.516H8.756V4.512H7.154V6.042H5.57V12.198H3.266ZM12.1761 12.198V10.668H10.5921V0.516H12.8781V9.75H16.9461V0.516H19.2501V10.668H17.6481V12.198H12.1761ZM24.6058 12.198V10.668H23.0218V7.572H21.4378V0.516H23.7238V6.654H25.3078V9.75H26.2078V6.654H27.7918V0.516H30.0958V7.572H28.4938V10.668H26.9098V12.198H24.6058ZM32.2835 12.198V2.064H33.8675V0.516H39.3395V2.064H40.9415V7.572H39.3395V9.12H38.5655V9.75H40.1315V12.198H37.8635V10.668H36.2435V9.12H34.5695V12.198H32.2835ZM34.5695 6.654H38.6375V2.982H34.5695V6.654ZM43.1293 12.198V3.594H44.7133V2.064H46.2973V0.516H48.6013V2.064H50.1853V3.594H51.7873V12.198H49.4833V9.12H45.4153V12.198H43.1293ZM45.4153 6.654H49.4833V4.512H47.8993V2.982H46.9993V4.512H45.4153V6.654ZM55.559 12.198V10.668H53.975V6.654H56.261V9.75H60.329V2.982H55.559V0.516H61.031V2.064H62.633V10.668H61.031V12.198H55.559ZM68.4242 12.198V2.064H70.0082V0.516H72.2942V2.982H70.7102V5.142H71.5922V3.594H73.1942V2.064H74.7782V0.516H77.0822V2.982H75.4802V4.512H73.8962V6.042H72.2942V6.654H73.8962V8.202H75.4802V9.75H77.0822V12.198H74.7782V10.668H73.1942V9.12H71.5922V7.572H70.7102V12.198H68.4242ZM79.2699 12V9.534H81.5559V12H79.2699ZM87.3558 12.198V2.064H88.9398V0.516H94.4118V2.064H96.0138V7.572H94.4118V9.12H89.6418V12.198H87.3558ZM89.6418 6.654H93.7098V2.982H89.6418V6.654ZM97.6566 12.198V3.594H99.2406V2.064H100.825V0.516H103.129V2.064H104.713V3.594H106.315V12.198H104.011V9.12H99.9426V12.198H97.6566ZM99.9426 6.654H104.011V4.512H102.427V2.982H101.527V4.512H99.9426V6.654ZM108.502 12.198V0.516H110.788V2.064H112.372V3.594H113.974V8.202H114.856V0.516H117.16V12.198H114.856V10.668H113.272V9.12H111.67V4.512H110.788V12.198H108.502ZM119.348 12.198V0.516H124.82V2.064H126.404V3.594H128.006V9.12H126.404V10.668H124.82V12.198H119.348ZM121.634 9.75H124.118V8.202H125.702V4.512H124.118V2.982H121.634V9.75ZM131.778 12.198V10.668H130.194V2.064H131.778V0.516H137.25V2.064H138.852V4.512H136.548V2.982H132.48V5.142H135.666V7.572H132.48V9.75H136.548V8.202H138.852V10.668H137.25V12.198H131.778ZM144.207 12.198V6.042H142.623V4.512H141.039V0.516H143.325V3.594H144.909V5.142H145.809V3.594H147.393V0.516H149.697V4.512H148.095V6.042H146.511V12.198H144.207Z" fill="#CAC7C7"/>
</svg>
