<svg width="23" height="65" viewBox="0 0 23 65" fill="none" xmlns="http://www.w3.org/2000/svg">
<g clip-path="url(#clip0_122_2)">
<mask id="mask0_122_2" style="mask-type:luminance" maskUnits="userSpaceOnUse" x="0" y="0" width="23" height="65">
<path d="M0.000709534 0H22.5407V65H0.000709534V0Z" fill="white"/>
</mask>
<g mask="url(#mask0_122_2)">
<path d="M9.33867 9.83125C20.3672 26.975 17.2277 50.9437 0.403166 63.8625C0.0811653 64.1875 -0.079834 64.5937 0.0811675 64.8375C0.242166 65.0812 0.725165 65.0813 1.04716 64.7563C9.03023 58.3794 14.2995 49.1666 15.7787 39C17.3082 28.7625 15.0542 18.3625 9.33867 9.83125ZM8.45317 58.0937C10.7877 60.125 15.4567 58.4187 17.7912 53.7062C14.9737 52.325 11.1902 54.5187 8.45317 58.0937ZM5.95767 47.45C4.42817 50.6188 4.42817 54.6 6.76267 56.7125C9.49967 53.1375 8.69467 48.75 5.95767 47.45ZM12.8002 51.025C15.4567 52.65 19.6427 50.05 21.0112 45.0125C18.0327 44.2812 14.8127 47.125 12.8002 51.025ZM8.21167 41.275C7.32617 44.6875 8.13117 48.5875 10.8682 50.05H10.9487C12.8807 46.0687 11.1902 42.0063 8.21167 41.275ZM15.6177 43.4688C18.5962 44.4438 22.1382 41.1125 22.5407 35.9125C19.4817 35.75 16.8252 39.2438 15.6177 43.4688ZM9.25817 34.8563C9.01667 38.35 10.6267 41.925 13.6052 42.9V42.8187C14.7322 38.5937 12.3977 35.0188 9.25817 34.8563ZM22.2992 26.65C19.2402 27.2187 17.3082 31.1188 16.9862 35.425C20.0452 35.8312 22.9432 31.85 22.2992 26.65ZM9.09717 28.3562C9.58017 31.85 11.7537 34.9375 14.8127 35.3438L14.8932 35.2625C15.1347 30.9562 12.1562 27.8687 9.09717 28.3562ZM7.72867 22.0187C8.77517 25.35 11.5927 27.95 14.6517 27.625C14.1687 23.3187 10.6267 20.8812 7.72867 22.0187ZM20.3672 17.6312C17.5497 18.7687 16.3422 22.9125 16.7447 27.1375L16.8252 27.3812H16.9057C19.8842 26.975 21.8967 22.75 20.4477 17.875L20.3672 17.6312ZM5.15267 15.925C6.92367 19.0125 10.0632 21.0438 13.0417 20.15C11.7537 16.0063 7.80917 14.2188 5.15267 15.925ZM16.6642 9.1C14.0882 10.8063 13.7662 15.275 15.0542 19.5C18.0327 18.6062 19.3207 13.7312 16.6642 9.1ZM1.36917 10.4C3.78417 13.1625 7.32617 14.5438 10.0632 13.0813C7.88967 9.18125 3.54267 8.20625 1.36917 10.4ZM11.3512 1.3C9.09717 3.575 9.74117 8.125 11.9147 11.9437C14.5712 10.4812 14.8932 5.44375 11.3512 1.3ZM0.0811675 0C1.53017 3.81875 4.58917 6.825 8.29217 8.2875C8.29217 4.3875 4.10617 0.08125 0.0811675 0Z" fill="#CAC7C7"/>
</g>
</g>
<defs>
<clipPath id="clip0_122_2">
<rect width="23" height="65" fill="white"/>
</clipPath>
</defs>
</svg>
