<svg width="192" height="31" viewBox="0 0 192 31" fill="none" xmlns="http://www.w3.org/2000/svg">
<path d="M178 30.0899C177.423 30.0899 176.83 29.9135 176.22 29.5607C175.643 29.2079 175.162 28.7589 174.777 28.2137C174.392 27.6685 174.2 27.1073 174.2 26.53L174.344 26.2413C174.697 26.5941 174.954 26.9629 175.114 27.3478C175.242 27.7647 175.435 28.1175 175.691 28.4061C175.98 28.6948 176.461 28.8391 177.134 28.8391C177.295 28.8391 177.439 28.8231 177.567 28.791C177.696 28.7589 177.824 28.7268 177.952 28.6948C178.241 28.791 178.674 28.5986 179.251 28.1175C179.828 27.6685 180.422 27.0912 181.031 26.3857C181.672 25.7122 182.218 25.0387 182.667 24.3652C183.148 23.7238 183.404 23.2587 183.436 22.9701C183.981 22.2325 184.479 21.4467 184.928 20.6129C185.377 19.8111 185.809 19.0254 186.226 18.2557L186.274 17.6303L186.707 17.4379L186.659 17.3417V16.6201L187.814 14.5996L187.766 14.4072C186.964 15.4014 186.13 16.4276 185.264 17.486C184.43 18.5122 183.581 19.5225 182.715 20.5167C182.522 20.7091 182.298 20.8214 182.041 20.8534C181.785 20.9176 181.528 20.9496 181.271 20.9496C180.758 20.9496 180.374 20.7733 180.117 20.4205C179.86 20.0998 179.732 19.6989 179.732 19.2178C179.732 18.6085 179.844 18.0312 180.069 17.486C180.325 16.9087 180.598 16.3795 180.887 15.8985L180.839 15.7541C181.095 15.5297 181.288 15.225 181.416 14.8401C181.576 14.4232 181.753 14.0704 181.945 13.7818C181.079 14.3911 180.229 15.0807 179.395 15.8504C178.594 16.6201 177.792 17.3737 176.99 18.1114L176.942 18.0151C176.942 17.9189 177.118 17.6624 177.471 17.2454C177.856 16.7965 178.321 16.2833 178.866 15.706C179.443 15.1288 180.021 14.5515 180.598 13.9742C181.207 13.3649 181.737 12.8357 182.185 12.3867C182.667 11.9377 182.987 11.6491 183.148 11.5208L184.831 11.0878C184.992 11.0237 185.264 11.0878 185.649 11.2803C186.034 11.4406 186.226 11.617 186.226 11.8094C186.226 12.0018 186.066 12.2905 185.745 12.6753C185.425 13.0281 185.184 13.2847 185.024 13.445H184.976L185.072 13.6375L184.014 14.6958L183.965 14.9844L183.629 15.0807C183.565 15.1448 183.484 15.241 183.388 15.3693C183.324 15.4655 183.324 15.5938 183.388 15.7541C183.035 15.8824 182.859 16.0428 182.859 16.2352C182.859 16.2994 182.859 16.3795 182.859 16.4757C182.891 16.5399 182.923 16.6201 182.955 16.7163L182.474 17.0049L182.57 17.1492C182.41 17.2134 182.33 17.3898 182.33 17.6784L182.378 18.1595L182.474 18.3038C182.474 18.4962 182.442 18.6726 182.378 18.833C182.314 18.9933 182.266 19.1697 182.234 19.3621L182.33 19.4583C182.618 19.4263 183.067 19.1056 183.677 18.4962C184.286 17.8548 184.928 17.0851 185.601 16.1871C186.274 15.2891 186.868 14.4392 187.381 13.6375C187.926 12.8357 188.279 12.2584 188.439 11.9056C188.6 11.617 188.76 11.3444 188.92 11.0878C189.081 10.8313 189.321 10.703 189.642 10.703H190.075C190.331 10.703 190.604 10.7831 190.893 10.9435C191.213 11.1039 191.374 11.3444 191.374 11.6651C191.374 11.8255 191.245 12.2103 190.989 12.8197C190.732 13.429 190.412 14.1506 190.027 14.9844C189.674 15.8183 189.289 16.6521 188.872 17.486C188.455 18.3198 188.086 19.0414 187.766 19.6508C187.445 20.2601 187.221 20.645 187.092 20.8053C187.06 20.9977 186.996 21.2703 186.9 21.6231C186.804 22.008 186.659 22.2485 186.467 22.3447C185.986 23.2427 185.425 24.0605 184.783 24.7982C184.174 25.5679 183.581 26.3696 183.003 27.2035L182.185 27.5883C182.057 27.7166 181.945 27.8449 181.849 27.9732C181.753 28.1335 181.624 28.2618 181.464 28.358H181.32C180.839 28.8391 180.341 29.24 179.828 29.5607C179.347 29.9135 178.738 30.0899 178 30.0899Z" fill="#C7F1C1"/>
<path d="M172.218 20.757C171.929 20.757 171.576 20.5646 171.159 20.1797C170.774 19.7949 170.454 19.5062 170.197 19.3138C170.133 18.8969 170.021 18.5281 169.86 18.2073C169.7 17.8546 169.62 17.4858 169.62 17.1009C169.62 16.5236 169.828 15.8501 170.245 15.0804C170.694 14.2787 171.255 13.4929 171.929 12.7232C172.635 11.9535 173.34 11.3121 174.046 10.799C174.783 10.2858 175.441 10.0293 176.018 10.0293V9.93304C176.467 10.0293 176.884 10.3179 177.269 10.799C177.686 11.28 177.894 11.729 177.894 12.1459C177.894 12.5308 177.654 12.9317 177.172 13.3486C176.723 13.7335 176.162 14.1023 175.489 14.455C174.847 14.7758 174.206 15.0323 173.565 15.2248C172.955 15.4172 172.474 15.5134 172.121 15.5134V15.6096C171.897 15.9624 171.672 16.4114 171.448 16.9566C171.255 17.4697 171.159 17.9508 171.159 18.3998C171.159 18.5601 171.207 18.7365 171.304 18.9289C171.528 19.0893 171.817 19.1695 172.169 19.1695C172.522 19.1374 172.811 19.1374 173.035 19.1695L173.083 19.2176L173.228 18.9771C173.645 18.945 174.046 18.8488 174.43 18.6884V18.3998H174.719V18.2555L174.912 18.3036C175.072 18.2394 175.184 18.1753 175.248 18.1111C175.344 18.0149 175.457 17.9347 175.585 17.8706L175.874 18.0149V17.9668L176.74 17.149H176.788L176.932 17.2452V17.1971C177.349 16.8123 177.798 16.4595 178.279 16.1388C178.76 15.8181 179.113 15.4011 179.337 14.888L179.866 14.5032L179.963 14.5994C179.963 14.8239 179.882 15.0323 179.722 15.2248C179.562 15.4172 179.369 15.5455 179.145 15.6096C178.888 16.2189 178.503 16.7321 177.99 17.149C177.509 17.5659 177.012 17.9989 176.499 18.4479H176.355L176.307 18.6884C175.697 19.1053 175.056 19.5543 174.382 20.0354C173.741 20.5165 173.019 20.757 172.218 20.757ZM173.132 14.5994H173.228V14.5032C173.452 14.439 173.837 14.2466 174.382 13.9259C174.96 13.6052 175.505 13.2684 176.018 12.9156C176.531 12.5308 176.804 12.2582 176.836 12.0978H176.884L176.836 11.8573L176.884 11.6168C176.852 11.6168 176.788 11.6168 176.691 11.6168C176.595 11.5847 176.515 11.5687 176.451 11.5687C176.034 11.8573 175.617 12.1299 175.2 12.3865C174.783 12.643 174.366 12.8996 173.949 13.1562H173.853L173.805 13.541C173.613 13.6693 173.468 13.8297 173.372 14.0221C173.276 14.1824 173.196 14.3749 173.132 14.5994ZM180.444 14.455L180.155 14.3588L180.107 14.0702L180.588 13.9259L180.636 14.0702L180.444 14.455Z" fill="#C7F1C1"/>
<path d="M165.901 22.9219C165.452 22.9219 165.1 22.6974 164.843 22.2484C164.586 21.7994 164.458 21.3825 164.458 20.9976C164.458 20.4204 164.458 19.8591 164.458 19.3139C164.49 18.7366 164.538 18.1754 164.603 17.6302L164.506 17.5821C164.667 17.1652 164.859 16.636 165.084 15.9946C165.34 15.3211 165.468 14.824 165.468 14.5033C165.308 14.6636 165.148 14.84 164.987 15.0324C164.827 15.1928 164.683 15.3692 164.554 15.5616C164.33 15.7861 164.121 16.0427 163.929 16.3313C163.769 16.62 163.56 16.8926 163.304 17.1491C162.919 17.2453 162.566 17.534 162.245 18.015C161.925 18.464 161.556 18.897 161.139 19.3139C160.754 19.7308 160.209 19.9393 159.503 19.9393C159.279 19.9393 158.99 19.9233 158.637 19.8912C158.317 19.8271 158.076 19.7308 157.916 19.6026C157.499 19.5063 157.194 19.3941 157.002 19.2658C156.841 19.1055 156.713 18.8168 156.617 18.3999L156.809 17.7745L156.665 17.3897C156.825 16.8765 156.938 16.5077 157.002 16.2832C157.098 16.0587 157.226 15.8663 157.387 15.7059C157.579 15.5456 157.884 15.305 158.301 14.9843C158.333 14.824 158.413 14.7117 158.541 14.6476C158.702 14.5514 158.846 14.4872 158.974 14.4552L159.022 14.2146L159.503 13.6374L159.648 13.7336L159.936 13.3006C160.161 13.1403 160.385 13.044 160.61 13.012C160.866 12.9478 161.107 12.8516 161.331 12.7233C161.395 12.4668 161.588 12.2262 161.909 12.0017C162.261 11.7772 162.614 11.5527 162.967 11.3283C163.32 11.1038 163.512 10.8953 163.544 10.7029L163.737 10.751L164.554 10.2218L164.795 10.318L165.517 9.88506L166.382 9.83695L166.527 9.98127C166.527 10.2058 166.366 10.4463 166.046 10.7029C165.757 10.9274 165.5 11.0236 165.276 10.9915C164.699 11.1198 164.025 11.4405 163.256 11.9536C162.486 12.4668 161.732 13.0761 160.995 13.7817C160.289 14.4552 159.696 15.1768 159.215 15.9465C158.734 16.6841 158.493 17.3736 158.493 18.015C158.493 18.6244 158.814 18.9291 159.455 18.9291C159.936 18.9291 160.53 18.6725 161.235 18.1594C161.941 17.6142 162.598 17.0048 163.207 16.3313C163.817 15.6578 164.218 15.1126 164.41 14.6957L165.228 14.0703C165.324 13.7817 165.581 13.4449 165.998 13.0601C166.414 12.6432 166.687 12.2904 166.815 12.0017C166.944 11.7772 167.008 11.5688 167.008 11.3764C167.04 11.1519 167.2 11.0075 167.489 10.9434C167.681 10.751 167.89 10.5425 168.114 10.318C168.371 10.0935 168.467 9.82092 168.403 9.50021C168.563 9.27571 168.724 9.05122 168.884 8.82672C169.076 8.60222 169.237 8.37773 169.365 8.15323H169.509L169.75 7.9608V7.9127H169.99L170.135 7.67216L170.087 7.14299L170.327 6.99868L170.279 6.85436C170.279 6.82228 170.343 6.71004 170.471 6.51761C170.6 6.29311 170.728 6.06862 170.856 5.84412C170.985 5.61963 171.049 5.47531 171.049 5.41116C171.049 5.09045 170.92 4.9301 170.664 4.9301C170.568 4.9301 170.455 4.94613 170.327 4.97821C170.231 5.01028 170.135 5.04235 170.038 5.07442L169.99 4.83389L172.107 2.76531V2.7172C172.492 2.42857 172.845 2.12389 173.165 1.80318C173.518 1.4504 173.903 1.14573 174.32 0.88916C174.641 0.985373 175.009 1.09762 175.426 1.22591C175.875 1.35419 176.196 1.59472 176.388 1.9475L176.485 2.57288V2.6691C176.485 2.79738 176.26 3.13413 175.811 3.67933C175.362 4.22454 174.801 4.86596 174.127 5.60359C173.454 6.34122 172.764 7.06282 172.059 7.76838C171.385 8.47394 170.808 9.06725 170.327 9.54832C169.878 10.0294 169.622 10.2699 169.557 10.2699C169.525 10.4944 169.461 10.7349 169.365 10.9915C169.301 11.216 169.237 11.4565 169.173 11.7131C168.916 11.7772 168.691 11.9376 168.499 12.1942C168.339 12.4507 168.178 12.6913 168.018 12.9158L168.066 13.012C168.066 13.1082 167.938 13.4129 167.681 13.926C167.425 14.4391 167.12 15.0806 166.767 15.8503C166.414 16.62 166.11 17.4378 165.853 18.3037C165.597 19.1375 165.468 19.9393 165.468 20.709C165.468 21.0618 165.517 21.4306 165.613 21.8155C165.741 22.2324 165.917 22.5691 166.142 22.8257L165.901 22.9219Z" fill="#C7F1C1"/>
<path d="M146.283 20.9976C145.93 20.9976 145.674 20.8373 145.513 20.5166C145.385 20.2279 145.321 19.9393 145.321 19.6507C145.321 18.8168 145.513 17.9509 145.898 17.0529C146.315 16.1549 146.716 15.3371 147.101 14.5995C147.518 13.8298 147.726 13.2365 147.726 12.8195C147.726 12.6271 147.614 12.5309 147.389 12.5309C147.293 12.5309 147.149 12.563 146.956 12.6271V12.4347L148.111 11.0877V11.0396C148.271 10.8793 148.416 10.7189 148.544 10.5585C148.672 10.3982 148.8 10.2539 148.929 10.1256L149.362 9.83694C149.714 9.86902 150.051 9.96523 150.372 10.1256C150.725 10.2539 150.949 10.5265 151.045 10.9434L150.997 10.9915C151.029 11.2481 150.917 11.5207 150.661 11.8093C150.404 12.0979 150.179 12.3224 149.987 12.4828C149.795 12.8356 149.57 13.1723 149.314 13.493C149.089 13.7817 148.881 14.1024 148.688 14.4552V14.9362L148.496 15.3211H148.4C148.303 15.5135 148.207 15.722 148.111 15.9465C148.047 16.171 148.015 16.4115 148.015 16.6681L148.255 17.0529C148.351 16.9567 148.528 16.8124 148.784 16.62C149.073 16.3955 149.33 16.171 149.554 15.9465C149.779 15.722 149.891 15.5616 149.891 15.4654L150.42 14.9843C150.58 14.5033 150.933 13.9901 151.478 13.4449C152.024 12.8677 152.489 12.4187 152.873 12.0979L153.018 11.7131C153.21 11.6169 153.403 11.5046 153.595 11.3764C153.819 11.2481 154.044 11.1839 154.268 11.1839C154.525 11.1839 154.75 11.2481 154.942 11.3764C155.166 11.5046 155.391 11.6329 155.615 11.7612C155.615 11.8895 155.615 12.0498 155.615 12.2423C155.647 12.4026 155.664 12.563 155.664 12.7233C155.664 13.2365 155.519 13.7175 155.231 14.1665C154.942 14.6155 154.653 15.0805 154.365 15.5616C154.076 16.0427 153.932 16.636 153.932 17.3415C153.932 17.4378 153.932 17.6623 153.932 18.015C153.964 18.3357 154.012 18.6565 154.076 18.9772C154.172 19.2658 154.317 19.4101 154.509 19.4101L156.048 18.5923H156.145C156.209 18.3999 156.321 18.2235 156.481 18.0631C156.674 17.9028 156.882 17.8226 157.107 17.8226L157.155 17.8707C157.155 18.0311 157.01 18.2716 156.722 18.5923C156.465 18.913 156.177 19.2177 155.856 19.5063C155.567 19.795 155.359 20.0034 155.231 20.1317C155.102 20.1638 154.958 20.1959 154.798 20.2279C154.637 20.2279 154.477 20.26 154.317 20.3241L154.172 20.0836C153.467 20.0195 152.873 19.7789 152.392 19.362C151.943 18.913 151.719 18.3357 151.719 17.6302C151.719 17.4057 151.767 17.0048 151.863 16.4275C151.959 15.8182 152.072 15.2249 152.2 14.6476C152.36 14.0703 152.473 13.6694 152.537 13.4449C152.152 13.7015 151.783 14.1024 151.43 14.6476C151.077 15.1607 150.757 15.5937 150.468 15.9465C150.147 16.0747 149.811 16.4115 149.458 16.9567C149.137 17.4698 148.8 18.0471 148.448 18.6885C148.095 19.2979 147.742 19.8431 147.389 20.3241C147.037 20.7731 146.668 20.9976 146.283 20.9976Z" fill="#C7F1C1"/>
<path d="M142.323 23.5953L141.361 22.4888C141.201 21.8474 141.024 21.19 140.832 20.5165C140.671 19.8751 140.559 19.2176 140.495 18.5441L140.736 17.6301L140.639 17.582C140.768 17.2292 140.896 16.8764 141.024 16.5236C141.185 16.1388 141.265 15.77 141.265 15.4172C141.104 15.5776 140.928 15.7379 140.736 15.8983C140.575 16.0586 140.447 16.251 140.351 16.4755C140.222 16.6038 140.11 16.7642 140.014 16.9566C139.918 17.149 139.789 17.3094 139.629 17.4377L139.581 17.8706C139.132 17.9668 138.683 18.1913 138.234 18.5441C137.817 18.8648 137.4 19.1855 136.983 19.5062C136.566 19.7949 136.117 19.9392 135.636 19.9392C135.412 19.9392 135.123 19.9232 134.77 19.8911C134.45 19.827 134.209 19.7307 134.049 19.6025C133.632 19.5062 133.327 19.394 133.135 19.2657C132.974 19.1054 132.846 18.8167 132.75 18.3998L132.942 17.7744L132.798 17.3896C132.958 16.8764 133.071 16.5076 133.135 16.2831C133.231 16.0586 133.359 15.8662 133.52 15.7058C133.712 15.5455 134.017 15.305 134.434 14.9842C134.466 14.8239 134.546 14.7116 134.674 14.6475C134.835 14.5513 134.979 14.4871 135.107 14.4551L135.155 14.2145L135.636 13.6373L135.781 13.7335L136.069 13.3005C136.294 13.1402 136.518 13.0439 136.743 13.0119C136.999 12.9477 137.24 12.8515 137.464 12.7232C137.529 12.3705 137.737 12.162 138.09 12.0979C138.475 12.0016 138.699 11.8253 138.763 11.5687H138.956L139.773 11.0395L140.062 11.1838L140.736 10.7509C140.928 10.7509 141.104 10.7348 141.265 10.7028C141.457 10.6707 141.634 10.6547 141.794 10.6547L141.986 10.7509C141.345 10.9754 140.607 11.3442 139.773 11.8573C138.94 12.3384 138.122 12.9157 137.32 13.5892C136.55 14.2306 135.909 14.9361 135.396 15.7058C134.883 16.4755 134.626 17.2452 134.626 18.0149C134.626 18.6243 134.947 18.929 135.588 18.929C136.166 18.929 136.759 18.7526 137.368 18.3998C138.01 18.047 138.587 17.6141 139.1 17.1009C139.613 16.5878 139.982 16.0907 140.206 15.6096L141.024 14.9361C141.088 14.7758 141.169 14.6635 141.265 14.5994C141.361 14.5352 141.425 14.423 141.457 14.2626C141.682 14.2306 141.842 14.0381 141.938 13.6854C142.034 13.3326 142.147 12.9477 142.275 12.5308C142.403 12.0818 142.58 11.697 142.804 11.3763C143.029 11.0555 143.365 10.8952 143.814 10.8952C144.167 10.8952 144.568 11.0555 145.017 11.3763C145.466 11.6649 145.69 12.0177 145.69 12.4346C145.69 12.6591 145.498 13.0921 145.113 13.7335C144.728 14.3749 144.279 15.1286 143.766 15.9945C143.285 16.8604 142.852 17.7584 142.467 18.6884C142.083 19.6185 141.89 20.5004 141.89 21.3343C141.89 21.6871 141.954 22.0399 142.083 22.3926C142.243 22.7454 142.339 23.0982 142.371 23.451L142.323 23.5953Z" fill="#C7F1C1"/>
<path d="M113.763 28.9351C113.121 28.9351 112.48 28.7747 111.839 28.454C111.165 28.1654 110.604 27.7485 110.155 27.2033C109.706 26.6581 109.481 26.0327 109.481 25.3271L109.626 24.9904C109.946 25.3432 110.187 25.728 110.347 26.1449C110.508 26.5619 110.732 26.8986 111.021 27.1552C111.309 27.4438 111.791 27.5881 112.464 27.5881C112.592 27.5881 112.721 27.5721 112.849 27.54C112.977 27.54 113.105 27.524 113.234 27.4919C113.394 27.5561 113.715 27.4117 114.196 27.059C114.677 26.7062 115.222 26.2572 115.831 25.712C116.441 25.1668 117.05 24.5735 117.659 23.932C118.237 23.3227 118.734 22.7614 119.151 22.2483C119.536 21.7672 119.744 21.4305 119.776 21.2381C120.033 20.8532 120.289 20.4363 120.546 19.9873C120.834 19.5383 121.091 19.1054 121.315 18.6884L121.412 18.7365L121.556 18.5441C121.813 18.2555 121.973 17.9668 122.037 17.6782C122.101 17.3896 122.294 17.117 122.614 16.8604C122.871 16.4755 123.095 16.0907 123.288 15.7058C123.512 15.321 123.625 14.9041 123.625 14.4551C123.625 14.2626 123.673 14.0863 123.769 13.9259C123.865 13.7335 123.961 13.5571 124.057 13.3967C124.699 12.4025 125.116 11.4885 125.308 10.6547C125.501 9.82082 125.741 8.85869 126.03 7.76828C125.966 7.60792 125.869 7.4636 125.741 7.33532C125.613 7.20704 125.501 7.07875 125.404 6.95047H125.501C126.11 6.95047 126.543 7.12686 126.8 7.47964C127.056 7.83242 127.184 8.28141 127.184 8.82662C127.184 9.01905 127.136 9.37183 127.04 9.88496C126.944 10.366 126.8 10.8952 126.607 11.4725C126.447 12.0498 126.254 12.5469 126.03 12.9638C125.837 13.3807 125.629 13.5892 125.404 13.5892C125.372 13.8457 125.308 14.1023 125.212 14.3589C125.148 14.5834 125.068 14.8079 124.971 15.0323C125.132 14.872 125.292 14.6796 125.453 14.4551C125.645 14.1985 125.853 14.0542 126.078 14.0221C126.27 13.8618 126.399 13.6533 126.463 13.3967C126.559 13.1402 126.719 12.9317 126.944 12.7713C127.008 12.7713 127.104 12.7393 127.232 12.6751C127.393 12.5789 127.425 12.4987 127.329 12.4346L128.002 12.0016H128.243C128.307 11.6809 128.515 11.4885 128.868 11.4244C129.253 11.0716 129.542 10.8311 129.734 10.7028C129.958 10.5745 130.183 10.4943 130.407 10.4622C130.664 10.3981 131.033 10.334 131.514 10.2698L131.899 10.4622C132.059 10.366 132.203 10.3179 132.332 10.3179C132.781 10.3179 133.101 10.5905 133.294 11.1357C133.518 11.6809 133.631 12.1299 133.631 12.4827C133.631 13.3486 133.454 13.99 133.101 14.407C132.749 14.7918 132.348 15.1446 131.899 15.4653C131.482 15.7539 131.145 16.1869 130.889 16.7642C130.311 17.0528 129.75 17.4216 129.205 17.8706C128.756 17.9989 128.371 18.2394 128.05 18.5922C127.73 18.945 127.345 19.2016 126.896 19.3619C126.158 19.5864 125.388 19.8109 124.587 20.0354C123.817 20.2278 123.031 20.292 122.229 20.2278C122.101 20.7089 121.813 21.3183 121.364 22.0559C120.915 22.8256 120.434 23.5632 119.92 24.2688C119.407 25.0064 118.99 25.6158 118.67 26.0968L117.804 26.4817C117.708 26.61 117.611 26.7382 117.515 26.8665C117.387 27.0269 117.259 27.1391 117.13 27.2033H116.938C116.489 27.7164 116.04 28.1333 115.591 28.454C115.11 28.7747 114.5 28.9351 113.763 28.9351ZM122.855 18.8809C124.779 18.7846 126.543 18.3998 128.146 17.7263C129.782 17.0528 131.145 15.8662 132.235 14.1664C132.492 13.7495 132.62 13.3647 132.62 13.0119C132.62 12.6912 132.492 12.4667 132.235 12.3384C131.979 12.2101 131.706 12.146 131.418 12.146C130.616 12.146 129.782 12.3705 128.916 12.8195C128.05 13.2364 127.216 13.7976 126.415 14.5032C125.645 15.1767 124.939 15.9143 124.298 16.7161C123.689 17.4858 123.208 18.2074 122.855 18.8809ZM124.009 16.4274L124.154 16.3312V16.235L124.106 16.3312L124.009 16.4274Z" fill="#C7F1C1"/>
<path d="M108.361 20.3724C108.136 20.3724 107.815 20.2441 107.399 19.9876C107.014 19.6989 106.645 19.3782 106.292 19.0254C105.971 18.6727 105.811 18.384 105.811 18.1595C105.811 18.0633 106.003 17.935 106.388 17.7747C106.773 17.5822 107.222 17.3898 107.735 17.1974C108.28 16.9729 108.778 16.7644 109.227 16.572C109.676 16.3796 109.98 16.2192 110.141 16.0909V16.1872C110.141 16.3475 110.044 16.572 109.852 16.8606C109.692 17.1493 109.547 17.3577 109.419 17.486L109.515 17.919L109.467 18.4963C109.371 18.6245 109.275 18.849 109.178 19.1698C109.114 19.4584 109.018 19.731 108.89 19.9876C108.794 20.2441 108.617 20.3724 108.361 20.3724Z" fill="#C7F1C1"/>
<path d="M100.79 19.9392C100.309 19.9392 99.9404 19.7468 99.6838 19.3619L98.5774 18.8328C98.4491 18.5441 98.385 18.1913 98.385 17.7744C98.385 17.1009 98.5453 16.3793 98.8661 15.6096C99.2188 14.8079 99.5556 14.1344 99.8763 13.5892C99.6518 13.4609 99.4594 13.3005 99.299 13.1081C99.1387 12.9157 98.9783 12.7232 98.818 12.5308L98.6736 12.4346C98.5454 12.5629 98.401 12.6751 98.2407 12.7713C98.0803 12.8676 97.92 12.9317 97.7596 12.9638C97.471 13.2524 97.0541 13.7335 96.5089 14.407C95.9637 15.0484 95.3704 15.7219 94.729 16.4274C94.0876 17.1009 93.4622 17.6942 92.8528 18.2074C92.2756 18.7205 91.8106 18.9771 91.4578 18.9771L91.4097 18.8809C91.4417 18.6884 91.5861 18.48 91.8426 18.2555C92.1313 17.9989 92.3397 17.8065 92.468 17.6782C92.5321 17.4216 92.6925 17.1971 92.949 17.0047C93.2056 16.8123 93.4461 16.668 93.6706 16.5718H93.7187L94.0074 16.1388L94.2479 15.9945L94.1998 15.9464L94.5365 15.7058C94.6007 15.5455 94.6969 15.4012 94.8252 15.2729C94.9535 15.1446 95.0657 15.0163 95.1619 14.888V14.7918C95.8675 14.2466 96.5089 13.6533 97.0861 13.0119C97.6955 12.3384 98.3209 11.6809 98.9623 11.0395L99.0104 10.9914L98.9623 10.7028C98.9623 10.35 99.0424 9.96514 99.2028 9.54822C99.3952 9.09922 99.6037 8.76248 99.8282 8.53798C100.053 8.21727 100.325 7.88053 100.646 7.52775C100.999 7.1429 101.384 6.95047 101.801 6.95047C102.121 6.95047 102.314 7.11082 102.378 7.43153C102.442 7.72017 102.474 7.97674 102.474 8.20124C102.474 9.00301 102.266 9.62839 101.849 10.0774C101.432 10.4943 100.999 10.815 100.55 11.0395C100.133 11.264 99.9244 11.5045 99.9244 11.7611L100.694 12.0979L100.983 11.8573L101.031 11.9054H101.127C101.319 11.8092 101.512 11.729 101.704 11.6649C101.897 11.5687 102.105 11.5206 102.33 11.5206C102.522 11.5206 102.715 11.5847 102.907 11.713C103.099 11.8092 103.26 11.9054 103.388 12.0016L103.436 12.4346C103.468 12.7232 103.34 13.044 103.051 13.3967C102.795 13.7174 102.474 14.1023 102.089 14.5513C101.704 14.9682 101.368 15.4813 101.079 16.0907C100.79 16.668 100.646 17.3415 100.646 18.1112C100.646 18.3036 100.678 18.512 100.742 18.7365C100.838 18.929 101.015 19.0252 101.271 19.0252C101.656 19.0252 102.089 18.8809 102.57 18.5922C103.051 18.3036 103.532 17.9829 104.013 17.6301C104.494 17.2452 104.895 16.9566 105.216 16.7642L105.408 17.0047C105.408 17.2292 105.216 17.5018 104.831 17.8225C104.446 18.1432 103.981 18.4639 103.436 18.7847C102.891 19.1054 102.362 19.378 101.849 19.6025C101.368 19.827 101.015 19.9392 100.79 19.9392Z" fill="#C7F1C1"/>
<path d="M82.4301 21.3826C82.0452 21.094 81.8528 20.7091 81.8528 20.2281C81.8528 19.8753 81.8849 19.5385 81.949 19.2178C82.0452 18.8651 82.1093 18.5123 82.1414 18.1595H82.1895C83.2158 15.3052 84.5307 12.7074 86.1342 10.3663C87.7377 7.993 89.5657 5.71596 91.6182 3.53514C91.5862 3.31064 91.7465 2.9739 92.0993 2.52491C92.4842 2.07591 92.9011 1.62692 93.3501 1.17793C93.8311 0.728933 94.1679 0.440295 94.3603 0.312012C94.5527 0.312012 94.8413 0.392189 95.2262 0.552544C95.611 0.712898 95.9638 0.905324 96.2845 1.12982C96.6052 1.32225 96.7656 1.53071 96.7656 1.7552C96.7656 1.9797 96.5892 2.38059 96.2364 2.95786C95.8836 3.50307 95.4827 4.03224 95.0338 4.54538C94.6168 5.02644 94.2641 5.28301 93.9754 5.31508V4.78591L93.6868 4.93023V4.88212L93.3982 4.64159C93.2378 4.86609 93.0294 5.07455 92.7728 5.26697C92.5483 5.42733 92.2597 5.5075 91.9069 5.5075V5.60372L91.7145 5.94046H91.6182V6.18099H91.3777C90.9287 6.18099 90.5599 6.34135 90.2713 6.66206V7.09502L90.4156 7.14312V7.09502L90.6561 6.90259L90.7042 6.9507C90.3835 7.75247 89.9185 8.52217 89.3092 9.25981C88.7319 9.99744 88.1386 10.7351 87.5293 11.4727C86.952 12.2103 86.487 13.0121 86.1342 13.878C85.9097 14.0384 85.6211 14.343 85.2683 14.792C84.9476 15.209 84.659 15.658 84.4024 16.139C84.1458 16.588 84.0175 16.9408 84.0175 17.1974C84.0175 17.3256 84.0175 17.4379 84.0175 17.5341C84.0175 17.6303 84.0336 17.7426 84.0656 17.8709V17.8227C84.8995 17.1493 85.4767 16.5078 85.7975 15.8985C86.1182 15.2571 86.3427 14.7119 86.4709 14.2629C86.6313 13.7818 86.8558 13.429 87.1444 13.2045C87.433 12.948 87.9782 12.8678 88.78 12.964V12.9159C89.1007 12.6273 89.4856 12.2745 89.9346 11.8576C90.3835 11.4406 90.8486 11.0718 91.3296 10.7511C91.8427 10.4304 92.3078 10.27 92.7247 10.27C92.7888 10.27 92.869 10.3021 92.9652 10.3663C93.0935 10.3983 93.1737 10.4304 93.2057 10.4625L93.5425 10.9435C93.5425 11.2322 93.4302 11.5208 93.2057 11.8094C92.9812 12.066 92.7888 12.2905 92.6285 12.4829H92.5323V12.6754L89.8383 14.9364C89.7742 15.0646 89.7421 15.1929 89.7421 15.3212C89.7421 15.6099 89.8223 15.9787 89.9827 16.4277C90.143 16.8446 90.3675 17.2294 90.6561 17.5822C90.9768 17.9029 91.3136 18.0633 91.6664 18.0633H92.2436L92.7247 17.6784V17.6303L92.869 17.6784L93.4944 17.3417L93.5425 17.3898C93.4463 17.7105 93.1897 18.0954 92.7728 18.5443C92.3559 18.9933 91.8908 19.3942 91.3777 19.747C90.8967 20.0677 90.4797 20.2281 90.127 20.2281C89.4856 20.2281 88.9885 20.0196 88.6357 19.6027C88.2829 19.1858 88.0103 18.7047 87.8179 18.1595C87.6575 17.5822 87.5132 17.0851 87.3849 16.6682C87.2567 16.2513 87.0963 16.0428 86.9039 16.0428C86.6473 16.0428 86.3908 16.2192 86.1342 16.572C85.8776 16.9248 85.7012 17.1974 85.605 17.3898C85.4447 17.5181 85.2843 17.6624 85.124 17.8227C84.9636 17.9831 84.8033 18.1435 84.6429 18.3038H84.5467L84.1138 18.7368L84.21 18.833L83.8251 19.314L83.9694 19.5546H83.8251L83.5365 20.0356V20.2281H83.4884L83.2479 20.0356V20.18H83.1997L83.3922 20.3724L83.0554 20.6129L82.5263 21.094L82.4782 21.3826H82.4301ZM89.5978 14.5996H89.694C89.9185 14.4393 90.2071 14.2148 90.5599 13.9261C90.9127 13.6054 91.2334 13.2687 91.522 12.9159C91.8427 12.5631 92.0031 12.2584 92.0031 12.0019L91.8588 11.6651L91.8107 11.7613C91.6503 11.8255 91.3777 11.9698 90.9929 12.1943C90.6401 12.3867 90.4477 12.5952 90.4156 12.8197L90.127 12.6754L90.0308 12.9159L89.9827 12.8678C89.694 13.0602 89.5497 13.3488 89.5497 13.7337C89.5497 13.8941 89.5497 14.0384 89.5497 14.1667C89.5818 14.2949 89.5978 14.4393 89.5978 14.5996Z" fill="#C7F1C1"/>
<path d="M76.0833 8.39355C75.955 8.39355 75.6985 8.36148 75.3136 8.29734C74.9288 8.20112 74.7364 8.08888 74.7364 7.96059C74.7364 7.47953 74.9769 7.12675 75.458 6.90225C75.9711 6.67775 76.388 6.45326 76.7087 6.22876H76.7568C77.2058 5.87598 77.751 5.63545 78.3924 5.50717C79.0338 5.37888 79.6111 5.2987 80.1242 5.26663V5.31474C79.5469 5.50716 79.0017 5.85994 78.4886 6.37308C78.0076 6.85414 77.5586 7.31917 77.1417 7.76817C76.7568 8.18509 76.404 8.39355 76.0833 8.39355ZM60.7376 30.282C60.1924 30.282 59.6312 30.1056 59.0539 29.7528C58.4446 29.4 57.9475 28.951 57.5626 28.4058C57.1778 27.8606 56.9854 27.2994 56.9854 26.7221C56.9854 26.658 57.0174 26.5617 57.0816 26.4335L57.3702 26.7702C57.5947 27.3795 57.8994 27.9087 58.2842 28.3577C58.669 28.8067 59.2143 29.0312 59.9198 29.0312C60.0802 29.0312 60.2245 29.0152 60.3527 28.9831C60.449 28.951 60.5612 28.919 60.6895 28.8869C60.9781 28.9831 61.4271 28.8067 62.0364 28.3577C62.6137 27.9087 63.2231 27.3314 63.8645 26.6259C64.4738 25.9203 65.019 25.2468 65.5001 24.6054C65.9491 23.964 66.1896 23.499 66.2216 23.2103C66.7348 22.4406 67.2158 21.6549 67.6648 20.8531C68.1138 20.0513 68.5628 19.2656 69.0118 18.4959L69.0599 17.8705L69.4928 17.63L69.3966 17.5819C69.5249 17.165 69.6692 16.6037 69.8296 15.8982C70.022 15.1605 70.2305 14.4069 70.455 13.6371C70.7115 12.8674 71.0322 12.226 71.4171 11.7129C71.8019 11.1677 72.2669 10.8951 72.8121 10.8951C73.1008 10.8951 73.3894 10.9753 73.678 11.1356C73.9667 11.296 74.111 11.5525 74.111 11.9053C74.111 12.0336 73.9827 12.4024 73.7261 13.0118C73.4696 13.6211 73.1489 14.3427 72.764 15.1766C72.4113 16.0104 72.0264 16.8442 71.6095 17.6781C71.1926 18.5119 70.8238 19.2496 70.5031 19.891C70.1824 20.5003 69.9579 20.8852 69.8296 21.0455C69.7975 21.27 69.7334 21.5426 69.6372 21.8633C69.573 22.2161 69.4447 22.4406 69.2523 22.5368C68.7392 23.4348 68.1779 24.2687 67.5686 25.0384C66.9593 25.8081 66.366 26.6098 65.7887 27.4437L64.9709 27.8285L64.2493 28.502H64.105C63.6239 29.0152 63.1268 29.4321 62.6137 29.7528C62.1006 30.1056 61.4752 30.282 60.7376 30.282Z" fill="#C7F1C1"/>
<path d="M64.6692 23.5953L63.7071 22.4888C63.5468 21.8474 63.3704 21.19 63.178 20.5165C63.0176 19.8751 62.9054 19.2176 62.8412 18.5441L63.0817 17.6301L62.9855 17.582C63.1138 17.2292 63.2421 16.8764 63.3704 16.5236C63.5307 16.1388 63.6109 15.77 63.6109 15.4172C63.4506 15.5776 63.2742 15.7379 63.0817 15.8983C62.9214 16.0586 62.7931 16.251 62.6969 16.4755C62.5686 16.6038 62.4564 16.7642 62.3602 16.9566C62.2639 17.149 62.1357 17.3094 61.9753 17.4377L61.9272 17.8706C61.4782 17.9668 61.0292 18.1913 60.5802 18.5441C60.1633 18.8648 59.7464 19.1855 59.3295 19.5062C58.9126 19.7949 58.4636 19.9392 57.9825 19.9392C57.758 19.9392 57.4694 19.9232 57.1166 19.8911C56.7959 19.827 56.5554 19.7307 56.395 19.6025C55.9781 19.5062 55.6735 19.394 55.481 19.2657C55.3207 19.1054 55.1924 18.8167 55.0962 18.3998L55.2886 17.7744L55.1443 17.3896C55.3047 16.8764 55.4169 16.5076 55.481 16.2831C55.5772 16.0586 55.7055 15.8662 55.8659 15.7058C56.0583 15.5455 56.363 15.305 56.7799 14.9842C56.812 14.8239 56.8921 14.7116 57.0204 14.6475C57.1808 14.5513 57.3251 14.4871 57.4534 14.4551L57.5015 14.2145L57.9825 13.6373L58.1269 13.7335L58.4155 13.3005C58.64 13.1402 58.8645 13.0439 59.089 13.0119C59.3455 12.9477 59.5861 12.8515 59.8106 12.7232C59.8747 12.3705 60.0831 12.162 60.4359 12.0979C60.8208 12.0016 61.0453 11.8253 61.1094 11.5687H61.3018L62.1196 11.0395L62.4083 11.1838L63.0817 10.7509C63.2742 10.7509 63.4506 10.7348 63.6109 10.7028C63.8033 10.6707 63.9797 10.6547 64.1401 10.6547L64.3325 10.7509C63.6911 10.9754 62.9535 11.3442 62.1196 11.8573C61.2858 12.3384 60.468 12.9157 59.6662 13.5892C58.8965 14.2306 58.2551 14.9361 57.742 15.7058C57.2289 16.4755 56.9723 17.2452 56.9723 18.0149C56.9723 18.6243 57.293 18.929 57.9344 18.929C58.5117 18.929 59.105 18.7526 59.7143 18.3998C60.3557 18.047 60.933 17.6141 61.4461 17.1009C61.9593 16.5878 62.3281 16.0907 62.5526 15.6096L63.3704 14.9361C63.4345 14.7758 63.5147 14.6635 63.6109 14.5994C63.7071 14.5352 63.7713 14.423 63.8033 14.2626C64.0278 14.2306 64.1882 14.0381 64.2844 13.6854C64.3806 13.3326 64.4928 12.9477 64.6211 12.5308C64.7494 12.0818 64.9258 11.697 65.1503 11.3763C65.3748 11.0555 65.7115 10.8952 66.1605 10.8952C66.5133 10.8952 66.9142 11.0555 67.3632 11.3763C67.8121 11.6649 68.0366 12.0177 68.0366 12.4346C68.0366 12.6591 67.8442 13.0921 67.4594 13.7335C67.0745 14.3749 66.6255 15.1286 66.1124 15.9945C65.6313 16.8604 65.1984 17.7584 64.8135 18.6884C64.4287 19.6185 64.2363 20.5004 64.2363 21.3343C64.2363 21.6871 64.3004 22.0399 64.4287 22.3926C64.5891 22.7454 64.6853 23.0982 64.7173 23.451L64.6692 23.5953Z" fill="#C7F1C1"/>
<path d="M51.2769 19.9392C50.7958 19.9392 50.427 19.7468 50.1704 19.3619L49.064 18.8328C48.9357 18.5441 48.8716 18.1913 48.8716 17.7744C48.8716 17.1009 49.0319 16.3793 49.3526 15.6096C49.7054 14.8079 50.0421 14.1344 50.3628 13.5892C50.1384 13.4609 49.9459 13.3005 49.7856 13.1081C49.6252 12.9157 49.4649 12.7232 49.3045 12.5308L49.1602 12.4346C49.0319 12.5629 48.8876 12.6751 48.7273 12.7713C48.5669 12.8676 48.4065 12.9317 48.2462 12.9638C47.9576 13.2524 47.5406 13.7335 46.9954 14.407C46.4502 15.0484 45.8569 15.7219 45.2155 16.4274C44.5741 17.1009 43.9487 17.6942 43.3394 18.2074C42.7621 18.7205 42.2971 18.9771 41.9443 18.9771L41.8962 18.8809C41.9283 18.6884 42.0726 18.48 42.3292 18.2555C42.6178 17.9989 42.8263 17.8065 42.9546 17.6782C43.0187 17.4216 43.1791 17.1971 43.4356 17.0047C43.6922 16.8123 43.9327 16.668 44.1572 16.5718H44.2053L44.494 16.1388L44.7345 15.9945L44.6864 15.9464L45.0231 15.7058C45.0873 15.5455 45.1835 15.4012 45.3117 15.2729C45.44 15.1446 45.5523 15.0163 45.6485 14.888V14.7918C46.354 14.2466 46.9954 13.6533 47.5727 13.0119C48.1821 12.3384 48.8074 11.6809 49.4488 11.0395L49.4969 10.9914L49.4488 10.7028C49.4488 10.35 49.529 9.96514 49.6894 9.54822C49.8818 9.09922 50.0902 8.76248 50.3147 8.53798C50.5392 8.21727 50.8118 7.88053 51.1325 7.52775C51.4853 7.1429 51.8702 6.95047 52.2871 6.95047C52.6078 6.95047 52.8002 7.11082 52.8643 7.43153C52.9285 7.72017 52.9606 7.97674 52.9606 8.20124C52.9606 9.00301 52.7521 9.62839 52.3352 10.0774C51.9183 10.4943 51.4853 10.815 51.0363 11.0395C50.6194 11.264 50.411 11.5045 50.411 11.7611L51.1806 12.0979L51.4693 11.8573L51.5174 11.9054H51.6136C51.806 11.8092 51.9984 11.729 52.1909 11.6649C52.3833 11.5687 52.5917 11.5206 52.8162 11.5206C53.0087 11.5206 53.2011 11.5847 53.3935 11.713C53.5859 11.8092 53.7463 11.9054 53.8746 12.0016L53.9227 12.4346C53.9547 12.7232 53.8265 13.044 53.5378 13.3967C53.2813 13.7174 52.9606 14.1023 52.5757 14.5513C52.1909 14.9682 51.8541 15.4813 51.5655 16.0907C51.2769 16.668 51.1325 17.3415 51.1325 18.1112C51.1325 18.3036 51.1646 18.512 51.2288 18.7365C51.325 18.929 51.5014 19.0252 51.7579 19.0252C52.1428 19.0252 52.5757 18.8809 53.0568 18.5922C53.5378 18.3036 54.0189 17.9829 54.4999 17.6301C54.981 17.2452 55.3819 16.9566 55.7026 16.7642L55.895 17.0047C55.895 17.2292 55.7026 17.5018 55.3177 17.8225C54.9329 18.1432 54.4679 18.4639 53.9227 18.7847C53.3775 19.1054 52.8483 19.378 52.3352 19.6025C51.8541 19.827 51.5014 19.9392 51.2769 19.9392Z" fill="#C7F1C1"/>
<path d="M35.7687 20.9496C35.2556 20.9496 34.8707 20.7732 34.6142 20.4204C34.3897 20.0677 34.2774 19.6668 34.2774 19.2178C34.2774 18.6084 34.4057 18.0311 34.6623 17.4859C34.9188 16.9087 35.1914 16.3795 35.4801 15.8984L35.432 15.7541C35.6885 15.5296 35.881 15.2249 36.0092 14.8401C36.1696 14.4232 36.346 14.0704 36.5384 13.7817C35.6725 14.4232 34.8226 15.1287 33.9888 15.8984C33.187 16.6361 32.3853 17.3737 31.5835 18.1113L31.5354 18.0151C31.5354 17.9189 31.7118 17.6623 32.0646 17.2454C32.4494 16.7964 32.9144 16.2833 33.4596 15.706C34.0369 15.1287 34.6142 14.5514 35.1914 13.9742C35.8008 13.3648 36.3299 12.8357 36.7789 12.3867C37.26 11.9377 37.5807 11.649 37.741 11.5207C37.9014 11.4566 38.2061 11.3764 38.655 11.2802C39.104 11.1519 39.3766 11.0878 39.4728 11.0878C39.6653 11.0878 39.9218 11.1519 40.2425 11.2802C40.5953 11.4085 40.7717 11.5849 40.7717 11.8094C40.7717 12.0018 40.6113 12.2904 40.2906 12.6753C40.002 13.0281 39.7775 13.2846 39.6172 13.445H39.5691L39.6653 13.6374C39.6332 13.8619 39.4889 14.0704 39.2323 14.2628C38.9758 14.4232 38.7673 14.5675 38.6069 14.6958L38.5588 14.9844L38.174 15.0806C38.1419 15.1448 38.0778 15.241 37.9816 15.3693C37.9174 15.4655 37.9174 15.5938 37.9816 15.7541C37.6288 15.8824 37.4524 16.0427 37.4524 16.2352C37.4524 16.2993 37.4524 16.3795 37.4524 16.4757C37.4845 16.5398 37.5165 16.62 37.5486 16.7162L37.0676 17.0049L37.1638 17.1492C36.8751 17.3737 36.7308 17.7265 36.7308 18.2075L36.9232 18.4962L36.8751 19.3621C36.8751 19.4583 36.8912 19.5545 36.9232 19.6507C36.9553 19.7469 36.9713 19.8271 36.9713 19.8913C37.5807 19.4423 38.2381 18.8008 38.9437 17.967C39.6492 17.1332 40.3548 16.2833 41.0603 15.4174C41.7659 14.5194 42.4233 13.7176 43.0327 13.012C43.6741 12.3065 44.2353 11.8415 44.7164 11.617C44.7164 11.3925 44.8767 11.1519 45.1974 10.8954C45.5181 10.6388 45.8869 10.3983 46.3039 10.1738C46.7208 9.9172 47.0094 9.75684 47.1698 9.6927C47.3943 9.66063 47.6027 9.62856 47.7951 9.59649C47.9876 9.53234 48.196 9.50027 48.4205 9.50027L48.5648 9.54838C47.9555 9.90116 47.3943 10.3341 46.8811 10.8473C46.368 11.3283 45.8228 11.7132 45.2455 12.0018C43.8665 13.3488 42.5516 14.7759 41.3009 16.2833C40.0822 17.7585 38.7994 19.2017 37.4524 20.6129C37.26 20.8053 37.0034 20.9015 36.6827 20.9015C36.362 20.9336 36.0573 20.9496 35.7687 20.9496Z" fill="#C7F1C1"/>
<path d="M26.8529 23.2587L26.1314 22.1041C26.0993 21.9117 26.0351 21.7193 25.9389 21.5269C25.8748 21.3344 25.8427 21.126 25.8427 20.9015C25.8427 20.5808 25.8588 20.2921 25.8908 20.0356C25.9229 19.7469 25.955 19.4423 25.987 19.1215L26.3238 18.3518L26.2757 18.2556C26.3398 18.1273 26.3879 17.9991 26.42 17.8708C26.4841 17.7104 26.5322 17.5661 26.5643 17.4378L26.3719 17.2935C26.1474 17.2935 25.8267 17.518 25.4098 17.967C25.0249 18.3839 24.5759 18.8008 24.0628 19.2178C23.5818 19.6347 23.0205 19.8431 22.3791 19.8431C21.9622 19.8431 21.5773 19.7149 21.2246 19.4583C20.8718 19.2017 20.7114 18.8169 20.7435 18.3037L20.6954 18.2075C21.0482 17.5661 21.3529 16.9086 21.6094 16.2352C21.866 15.5617 22.1386 14.9042 22.4272 14.2628L22.1386 13.7336L21.9943 13.7817L21.7537 13.6855L21.2727 14.1666L20.5992 14.3109L20.6954 14.5514H20.5992L20.1181 14.6958L20.0219 14.8882H19.7333L19.6852 15.1768C19.5248 15.3372 19.3484 15.5136 19.156 15.706C18.9636 15.8984 18.7391 16.0107 18.4825 16.0427L15.5962 18.7848L15.5481 18.6405C15.5481 18.416 15.6283 18.2396 15.7886 18.1113C15.949 17.951 16.0933 17.8066 16.2216 17.6784L16.2697 17.5821L16.414 17.4859L16.4621 17.534L16.6064 17.1973H16.5583C16.6225 17.1331 16.6866 17.053 16.7507 16.9568C16.8469 16.8285 16.9592 16.7643 17.0875 16.7643H17.1837C17.1837 16.7643 17.1837 16.7323 17.1837 16.6681C17.3761 16.3795 17.6327 16.1229 17.9534 15.8984H18.0977L18.242 15.7541L18.1939 15.6579L18.675 15.4655C18.6429 15.1447 18.8995 14.792 19.4447 14.4071C19.9899 14.0223 20.5832 13.6855 21.2246 13.3969C21.866 13.0762 22.315 12.9158 22.5715 12.9158C22.9243 12.9158 23.3412 13.012 23.8223 13.2045C24.3033 13.3648 24.5439 13.6695 24.5439 14.1185C24.5439 15.0165 24.3835 15.7381 24.0628 16.2833C23.7421 16.8285 23.5657 17.1813 23.5336 17.3416L23.678 17.4378C24.0628 17.4378 24.3675 17.3256 24.592 17.1011C24.8165 16.8445 25.041 16.5879 25.2655 16.3314C25.522 16.0748 25.8267 15.9305 26.1795 15.8984C26.1474 15.8663 26.1634 15.8503 26.2276 15.8503C26.2917 15.8182 26.3238 15.8343 26.3238 15.8984C26.4521 15.6739 26.7407 15.3211 27.1897 14.8401C27.6387 14.3269 28.1037 13.8459 28.5847 13.3969C29.0658 12.9479 29.4025 12.7234 29.595 12.7234C29.9477 12.7234 30.3486 12.8517 30.7976 13.1082C31.2466 13.3648 31.4711 13.6855 31.4711 14.0704C31.4711 14.2307 31.3428 14.5354 31.0862 14.9844C30.8618 15.4013 30.5892 15.8503 30.2684 16.3314C29.9477 16.8124 29.627 17.2454 29.3063 17.6302C29.0177 17.983 28.7932 18.1915 28.6329 18.2556C28.3442 18.7688 27.9433 19.3621 27.4302 20.0356C26.9492 20.677 26.7086 21.3184 26.7086 21.9598C26.7086 22.1843 26.7407 22.3928 26.8048 22.5852C26.869 22.7776 26.901 22.9701 26.901 23.1625L26.8529 23.2587Z" fill="#C7F1C1"/>
<path d="M4.32037 30.0899C3.7431 30.0899 3.1498 29.9135 2.54046 29.5607C1.96319 29.2079 1.48213 28.7589 1.09729 28.2137C0.712442 27.6685 0.52002 27.1073 0.52002 26.53L0.664337 26.2413C1.01711 26.5941 1.27368 26.9629 1.43403 27.3478C1.56231 27.7647 1.75473 28.1175 2.0113 28.4061C2.29993 28.6948 2.78099 28.8391 3.45447 28.8391C3.61482 28.8391 3.75914 28.8231 3.88742 28.791C4.0157 28.7589 4.14398 28.7268 4.27227 28.6948C4.5609 28.791 4.99385 28.5986 5.57112 28.1175C6.14839 27.6685 6.74169 27.0912 7.35103 26.3857C7.99244 25.7122 8.53764 25.0387 8.98663 24.3652C9.46769 23.7238 9.72425 23.2587 9.75632 22.9701C10.3015 22.2325 10.7986 21.4467 11.2476 20.6129C11.6966 19.8111 12.1295 19.0254 12.5465 18.2557L12.5946 17.6303L13.0275 17.4379L12.9794 17.3417V16.6201L14.1339 14.5996L14.0858 14.4072C13.2841 15.4014 12.4502 16.4276 11.5843 17.486C10.7505 18.5122 9.90064 19.5225 9.03473 20.5167C8.84231 20.7091 8.61782 20.8214 8.36125 20.8534C8.10469 20.9176 7.84813 20.9496 7.59156 20.9496C7.07843 20.9496 6.69359 20.7733 6.43702 20.4205C6.18046 20.0998 6.05218 19.6989 6.05218 19.2178C6.05218 18.6085 6.16443 18.0312 6.38892 17.486C6.64548 16.9087 6.91808 16.3795 7.20672 15.8985L7.15861 15.7541C7.41517 15.5297 7.6076 15.225 7.73588 14.8401C7.89623 14.4232 8.07262 14.0704 8.26504 13.7818C7.39914 14.3911 6.54927 15.0807 5.71544 15.8504C4.91368 16.6201 4.11191 17.3737 3.31015 18.1114L3.26205 18.0151C3.26205 17.9189 3.43843 17.6624 3.79121 17.2454C4.17605 16.7965 4.64108 16.2833 5.18628 15.706C5.76354 15.1288 6.34081 14.5515 6.91808 13.9742C7.52742 13.3649 8.05658 12.8357 8.50557 12.3867C8.98663 11.9377 9.30733 11.6491 9.46769 11.5208L11.1514 11.0878C11.3117 11.0237 11.5843 11.0878 11.9692 11.2803C12.354 11.4406 12.5465 11.617 12.5465 11.8094C12.5465 12.0018 12.3861 12.2905 12.0654 12.6753C11.7447 13.0281 11.5042 13.2847 11.3438 13.445H11.2957L11.3919 13.6375L10.3336 14.6958L10.2855 14.9844L9.94874 15.0807C9.8846 15.1448 9.80443 15.241 9.70821 15.3693C9.64407 15.4655 9.64407 15.5938 9.70821 15.7541C9.35544 15.8824 9.17905 16.0428 9.17905 16.2352C9.17905 16.2994 9.17905 16.3795 9.17905 16.4757C9.21112 16.5399 9.24319 16.6201 9.27526 16.7163L8.79421 17.0049L8.89042 17.1492C8.73006 17.2134 8.64989 17.3898 8.64989 17.6784L8.69799 18.1595L8.79421 18.3038C8.79421 18.4962 8.76213 18.6726 8.69799 18.833C8.63385 18.9933 8.58575 19.1697 8.55368 19.3621L8.64989 19.4583C8.93852 19.4263 9.38751 19.1056 9.99685 18.4962C10.6062 17.8548 11.2476 17.0851 11.9211 16.1871C12.5946 15.2891 13.1879 14.4392 13.701 13.6375C14.2462 12.8357 14.599 12.2584 14.7593 11.9056C14.9197 11.617 15.08 11.3444 15.2404 11.0878C15.4007 10.8313 15.6413 10.703 15.962 10.703H16.3949C16.6515 10.703 16.9241 10.7831 17.2127 10.9435C17.5334 11.1039 17.6938 11.3444 17.6938 11.6651C17.6938 11.8255 17.5655 12.2103 17.3089 12.8197C17.0524 13.429 16.7317 14.1506 16.3468 14.9844C15.994 15.8183 15.6092 16.6521 15.1923 17.486C14.7754 18.3198 14.4065 19.0414 14.0858 19.6508C13.7651 20.2601 13.5406 20.645 13.4124 20.8053C13.3803 20.9977 13.3161 21.2703 13.2199 21.6231C13.1237 22.008 12.9794 22.2485 12.787 22.3447C12.3059 23.2427 11.7447 24.0605 11.1033 24.7982C10.4939 25.5679 9.90064 26.3696 9.32337 27.2035L8.50557 27.5883C8.37729 27.7166 8.26504 27.8449 8.16883 27.9732C8.07262 28.1335 7.94434 28.2618 7.78398 28.358H7.63967C7.15861 28.8391 6.66152 29.24 6.14839 29.5607C5.66733 29.9135 5.05799 30.0899 4.32037 30.0899Z" fill="#C7F1C1"/>
</svg>
