<svg width="16" height="16" viewBox="0 0 16 16" fill="none" xmlns="http://www.w3.org/2000/svg">
<path d="M6.4774 0.802343C7.21712 -0.267447 8.7829 -0.267447 9.5226 0.802343C9.9707 1.45043 10.7718 1.74544 11.5268 1.54042C12.7731 1.20199 13.9726 2.22029 13.8596 3.52087C13.7911 4.30877 14.2174 5.05577 14.926 5.38975C16.0958 5.94104 16.3676 7.50115 15.4548 8.424C14.9018 8.983 14.7538 9.8325 15.0845 10.5492C15.6303 11.7322 14.8474 13.1042 13.5619 13.2174C12.7831 13.286 12.13 13.8405 11.928 14.6046C11.5945 15.8658 10.1232 16.4076 9.06641 15.6583C8.42631 15.2044 7.57373 15.2044 6.93355 15.6583C5.87681 16.4076 4.40549 15.8658 4.07202 14.6046C3.86999 13.8405 3.21692 13.286 2.43813 13.2174C1.15259 13.1042 0.369715 11.7322 0.915545 10.5492C1.24621 9.8325 1.09817 8.983 0.545175 8.424C-0.367655 7.50115 -0.0957651 5.94104 1.07396 5.38975C1.78259 5.05577 2.20885 4.30877 2.1404 3.52087C2.02741 2.22029 3.22686 1.20199 4.47315 1.54042C5.22817 1.74544 6.02928 1.45043 6.4774 0.802343Z" fill="url(#paint0_linear_124_8)"/>
<path d="M4.66681 8.254L6.66681 10.1112L11.3334 5.77783" stroke="white" stroke-width="1.2" stroke-linecap="round" stroke-linejoin="round"/>
<defs>
<linearGradient id="paint0_linear_124_8" x1="8.00001" y1="2.5e-06" x2="8.00001" y2="16" gradientUnits="userSpaceOnUse">
<stop stop-color="#27AE60"/>
<stop offset="1" stop-color="#1E874B"/>
</linearGradient>
</defs>
</svg>
